<?xml version="1.0" encoding="UTF-8"?>
<!DOCTYPE svg PUBLIC "-//W3C//DTD SVG 1.1//EN" "http://www.w3.org/Graphics/SVG/1.1/DTD/svg11.dtd">
<svg xmlns="http://www.w3.org/2000/svg" version="1.1" width="1605px" height="1093px" style="shape-rendering:geometricPrecision; text-rendering:geometricPrecision; image-rendering:optimizeQuality; fill-rule:evenodd; clip-rule:evenodd" xmlns:xlink="http://www.w3.org/1999/xlink">
<g><path style="opacity:0.004" fill="#000000" d="M 538.5,440.5 C 546.196,440.169 553.862,440.503 561.5,441.5C 556.647,443.266 551.814,443.933 547,443.5C 543.872,442.796 540.706,442.296 537.5,442C 538.056,441.617 538.389,441.117 538.5,440.5 Z"/></g>
<g><path style="opacity:0.044" fill="#000000" d="M 627.5,510.5 C 628.6,513.016 630.267,514.016 632.5,513.5C 631.975,512.808 631.308,512.308 630.5,512C 634.728,508.527 636.228,509.694 635,515.5C 633.366,516.99 633.699,518.324 636,519.5C 636.9,517.602 638.066,515.936 639.5,514.5C 639.396,518.555 639.896,522.555 641,526.5C 641.133,523.475 642.133,520.808 644,518.5C 645.868,521.939 645.368,525.106 642.5,528C 645.106,535.305 645.439,542.639 643.5,550C 644.426,553.139 644.592,556.306 644,559.5C 642.415,558.624 641.415,557.291 641,555.5C 640.13,556.108 639.63,556.941 639.5,558C 639.884,565.783 639.884,573.617 639.5,581.5C 637.856,581.286 636.356,581.62 635,582.5C 634.505,584.473 634.338,586.473 634.5,588.5C 629.821,588.666 625.155,588.499 620.5,588C 620.002,586.842 619.169,586.009 618,585.5C 616.518,587.112 614.685,588.112 612.5,588.5C 612.649,587.448 612.483,586.448 612,585.5C 611.788,588.758 611.288,591.924 610.5,595C 608.591,595.448 607.424,594.615 607,592.5C 606.667,594.167 606.333,595.833 606,597.5C 605,598.833 604,598.833 603,597.5C 602.767,599.78 601.934,601.78 600.5,603.5C 596.666,606.251 592.666,608.751 588.5,611C 586.5,611.333 584.5,611.667 582.5,612C 585.544,612.359 585.878,613.026 583.5,614C 574.962,614.537 566.296,614.37 557.5,613.5C 557.5,612.5 557.5,611.5 557.5,610.5C 555.833,610.5 554.167,610.5 552.5,610.5C 552.788,607.134 552.954,603.8 553,600.5C 552.667,600.167 552.333,599.833 552,599.5C 551.902,601.619 551.069,603.286 549.5,604.5C 548.009,603.652 547.342,602.319 547.5,600.5C 547.943,598.015 548.276,595.515 548.5,593C 547.169,581.848 546.002,570.681 545,559.5C 543.541,562.442 542.708,565.609 542.5,569C 544.874,578.699 545.707,588.532 545,598.5C 543.582,601.001 542.582,600.668 542,597.5C 541.667,590.167 541.333,582.833 541,575.5C 540.333,572.833 539.667,572.833 539,575.5C 538.107,578.433 537.607,581.433 537.5,584.5C 539.329,593.418 539.829,602.418 539,611.5C 538.692,612.308 538.192,612.975 537.5,613.5C 536.791,606.478 535.957,599.478 535,592.5C 534.667,593.167 534.333,593.833 534,594.5C 533.637,604.171 533.804,613.838 534.5,623.5C 533.5,623.5 532.5,623.5 531.5,623.5C 531.666,619.486 531.499,615.486 531,611.5C 529.481,613.556 528.647,615.89 528.5,618.5C 529.162,621.468 529.495,624.468 529.5,627.5C 527.876,627.64 526.71,626.973 526,625.5C 524.908,628.044 524.241,630.711 524,633.5C 511.941,633.565 499.774,633.398 487.5,633C 485.972,631.639 484.305,630.472 482.5,629.5C 481.929,625.69 481.096,622.024 480,618.5C 479.433,621.168 478.933,623.834 478.5,626.5C 477.5,626.5 476.5,626.5 475.5,626.5C 475.817,623.428 475.484,620.428 474.5,617.5C 472.466,617.772 470.466,618.105 468.5,618.5C 466.181,617.936 463.847,617.436 461.5,617C 465.985,615.726 470.652,615.059 475.5,615C 472.11,614.754 468.777,614.254 465.5,613.5C 463.07,614.25 460.736,614.583 458.5,614.5C 457.859,612.704 456.859,611.204 455.5,610C 457.929,609.549 458.096,608.715 456,607.5C 454.667,608.167 453.667,609.167 453,610.5C 451.713,607.855 449.547,606.855 446.5,607.5C 446.321,605.046 446.987,602.879 448.5,601C 447.629,599.231 446.296,598.564 444.5,599C 445.603,600.68 445.27,602.18 443.5,603.5C 442.16,602.312 441.493,600.812 441.5,599C 442.245,597.415 442.745,595.915 443,594.5C 442.667,594.167 442.333,593.833 442,593.5C 440.916,594.665 440.083,595.998 439.5,597.5C 437.893,598.7 436.893,598.2 436.5,596C 438.029,594.418 438.529,592.585 438,590.5C 437.586,590.043 437.086,589.709 436.5,589.5C 433.984,596.301 432.317,595.968 431.5,588.5C 430.167,588.5 428.833,588.5 427.5,588.5C 427.229,586.179 427.896,584.179 429.5,582.5C 429.291,581.914 428.957,581.414 428.5,581C 426.802,582.372 424.802,583.538 422.5,584.5C 422.042,581.606 422.709,579.106 424.5,577C 423.975,576.308 423.308,575.808 422.5,575.5C 421.148,576.518 420.148,577.851 419.5,579.5C 416.947,577.295 416.947,574.962 419.5,572.5C 419.167,571.5 418.5,570.833 417.5,570.5C 416.852,572.149 415.852,573.482 414.5,574.5C 413.692,572.577 413.192,570.577 413,568.5C 412,569.5 411,570.5 410,571.5C 407.817,568.655 407.65,565.988 409.5,563.5C 408.14,561.019 407.14,561.352 406.5,564.5C 405.675,565.386 404.675,565.719 403.5,565.5C 403.833,562.833 404.167,560.167 404.5,557.5C 403.5,557.5 402.5,557.5 401.5,557.5C 400.614,564.048 399.614,564.048 398.5,557.5C 398.529,555.971 399.196,554.804 400.5,554C 399.874,553.25 399.374,552.416 399,551.5C 397.471,552.729 396.304,554.229 395.5,556C 394.517,556.591 393.85,556.257 393.5,555C 394.986,547.224 395.986,539.39 396.5,531.5C 394.318,527.814 394.151,524.148 396,520.5C 396.186,522.9 396.686,525.234 397.5,527.5C 398.086,527.291 398.586,526.957 399,526.5C 399.43,523.808 399.263,521.141 398.5,518.5C 401.05,518.561 402.55,519.894 403,522.5C 404.646,521.059 404.813,519.392 403.5,517.5C 404.429,511.062 405.762,511.062 407.5,517.5C 408.72,517.113 409.387,516.28 409.5,515C 407.315,510.492 408.648,508.325 413.5,508.5C 413.201,506.396 413.534,504.396 414.5,502.5C 415.452,504.045 415.785,505.712 415.5,507.5C 417.346,507.778 418.68,507.111 419.5,505.5C 417.739,503.436 417.405,501.269 418.5,499C 418.833,498.833 419.167,498.667 419.5,498.5C 420.316,500.287 421.316,501.954 422.5,503.5C 423.086,503.291 423.586,502.957 424,502.5C 423.923,501.17 423.423,499.836 422.5,498.5C 422.899,496.803 423.399,495.137 424,493.5C 424.739,495.221 425.573,496.887 426.5,498.5C 428.271,497.965 428.604,497.131 427.5,496C 428.167,495.667 428.833,495.333 429.5,495C 427.808,493.599 427.141,491.766 427.5,489.5C 428.5,489.5 429.5,489.5 430.5,489.5C 430.358,493.223 431.691,494.056 434.5,492C 433.672,491.085 432.672,490.419 431.5,490C 432.525,487.929 433.358,485.762 434,483.5C 434.71,484.973 435.876,485.64 437.5,485.5C 437.319,479.263 438.319,478.597 440.5,483.5C 441.274,484.711 442.107,484.711 443,483.5C 442.888,481.822 442.388,480.155 441.5,478.5C 443.905,471.726 444.905,472.06 444.5,479.5C 445.675,479.719 446.675,479.386 447.5,478.5C 445.887,475.146 446.22,472.146 448.5,469.5C 449.308,471.423 449.808,473.423 450,475.5C 453.822,474.213 454.322,472.213 451.5,469.5C 452.512,461.537 453.512,461.537 454.5,469.5C 455.5,469.5 456.5,469.5 457.5,469.5C 456.267,466.394 456.433,463.394 458,460.5C 458.583,462.002 459.416,463.335 460.5,464.5C 463.239,462.769 462.906,461.603 459.5,461C 461.484,459.19 463.651,459.024 466,460.5C 466.5,460.167 467,459.833 467.5,459.5C 463.919,458.644 463.753,457.644 467,456.5C 474.989,457.801 482.989,457.801 491,456.5C 493.735,458.638 496.902,459.972 500.5,460.5C 499.314,471.029 499.314,481.695 500.5,492.5C 499.5,492.5 498.5,492.5 497.5,492.5C 497.66,490.801 497.494,489.134 497,487.5C 496.184,491.176 495.518,494.843 495,498.5C 494,497.167 493,495.833 492,494.5C 491.626,495.416 491.126,496.25 490.5,497C 491.406,498.699 491.739,500.533 491.5,502.5C 489.089,502.863 487.589,501.863 487,499.5C 486.808,501.577 486.308,503.577 485.5,505.5C 484.284,506.002 483.117,506.335 482,506.5C 481.506,508.134 481.34,509.801 481.5,511.5C 477.303,511.194 475.303,513.194 475.5,517.5C 477.5,517.5 479.5,517.5 481.5,517.5C 481.167,520.833 480.833,524.167 480.5,527.5C 476.932,527.759 475.599,529.759 476.5,533.5C 474.856,533.286 473.356,533.62 472,534.5C 471.502,537.482 471.335,540.482 471.5,543.5C 469.856,543.286 468.356,543.62 467,544.5C 467.511,549.39 467.344,554.224 466.5,559C 466.833,559.167 467.167,559.333 467.5,559.5C 468.48,558.019 469.647,556.685 471,555.5C 472.804,558.014 472.97,560.681 471.5,563.5C 471.833,563.833 472.167,564.167 472.5,564.5C 473.5,563.833 474.5,563.167 475.5,562.5C 476.167,564.5 476.833,566.5 477.5,568.5C 478.243,567.092 479.077,565.759 480,564.5C 481.216,566.962 481.882,569.629 482,572.5C 482.637,569.672 484.304,567.672 487,566.5C 488.091,570.46 489.091,574.46 490,578.5C 490.333,578.167 490.667,577.833 491,577.5C 490.93,572.166 490.43,566.832 489.5,561.5C 489.953,557.827 490.453,554.16 491,550.5C 492.16,555.079 492.993,559.746 493.5,564.5C 493.833,565.167 494.167,565.833 494.5,566.5C 495.557,564.997 496.224,563.33 496.5,561.5C 494.558,549.572 494.058,537.572 495,525.5C 496.509,524.91 498.009,524.244 499.5,523.5C 500.23,520.891 500.73,518.224 501,515.5C 502.932,521.656 503.932,527.989 504,534.5C 504.333,533.833 504.667,533.167 505,532.5C 505.294,526.105 504.794,519.772 503.5,513.5C 504.007,509.366 504.84,505.366 506,501.5C 507.162,506.792 508.162,512.125 509,517.5C 509.333,517.167 509.667,516.833 510,516.5C 510.164,509.474 509.664,502.474 508.5,495.5C 508.673,491.459 509.173,487.459 510,483.5C 511.491,490.08 512.657,496.747 513.5,503.5C 514.923,500.309 515.923,496.976 516.5,493.5C 513.532,486.181 512.699,478.514 514,470.5C 514.29,468.956 514.956,467.623 516,466.5C 516.855,473.83 517.689,481.163 518.5,488.5C 520.107,484.178 521.107,479.678 521.5,475C 521.342,472.851 520.508,471.017 519,469.5C 518.196,464.249 518.363,459.082 519.5,454C 519.833,453.833 520.167,453.667 520.5,453.5C 521.734,459.102 522.567,464.769 523,470.5C 525.994,464.559 526.161,458.559 523.5,452.5C 523.833,451.5 524.5,450.833 525.5,450.5C 526.187,452.274 527.02,453.941 528,455.5C 529.044,453.285 529.71,450.952 530,448.5C 531.008,448.018 532.175,447.852 533.5,448C 533.982,446.992 534.148,445.825 534,444.5C 534.561,443.978 535.228,443.645 536,443.5C 545.484,444.13 554.984,444.796 564.5,445.5C 564.291,446.086 563.957,446.586 563.5,447C 565.916,447.661 567.582,449.161 568.5,451.5C 569.799,450.91 570.632,449.91 571,448.5C 571.781,449.729 572.281,451.062 572.5,452.5C 570.872,456.416 571.205,460.083 573.5,463.5C 576.486,446.493 577.819,446.493 577.5,463.5C 578.5,463.5 579.5,463.5 580.5,463.5C 581.045,459.828 581.378,460.162 581.5,464.5C 579.897,464.312 578.563,464.812 577.5,466C 579.899,466.711 582.232,466.544 584.5,465.5C 585.5,466 586.5,466.5 587.5,467C 584.576,467.988 581.576,468.654 578.5,469C 582.799,471.135 586.966,470.968 591,468.5C 592.794,470.464 592.294,471.964 589.5,473C 590.354,474.022 591.354,474.855 592.5,475.5C 593.281,474.263 594.281,473.263 595.5,472.5C 596.698,474.991 597.365,477.325 597.5,479.5C 598.386,478.675 598.719,477.675 598.5,476.5C 599.5,476.5 600.5,476.5 601.5,476.5C 601.373,478.915 601.207,481.249 601,483.5C 601.667,484.167 602.333,484.833 603,485.5C 603.036,483.059 603.869,481.059 605.5,479.5C 605.808,482.75 605.975,486.083 606,489.5C 606.333,489.833 606.667,490.167 607,490.5C 607.9,488.602 609.066,486.936 610.5,485.5C 611.91,487.949 611.576,490.116 609.5,492C 610.155,493.487 611.155,494.653 612.5,495.5C 614.531,487.423 615.864,487.59 616.5,496C 614.378,497.738 614.545,499.572 617,501.5C 617.473,499.221 618.473,497.221 620,495.5C 621.019,497.269 621.186,498.936 620.5,500.5C 622.007,501.739 623.174,501.405 624,499.5C 624.931,501.459 625.764,503.459 626.5,505.5C 624.051,507.626 624.384,509.292 627.5,510.5 Z M 572.5,464.5 C 574.337,464.639 574.67,465.306 573.5,466.5C 572.702,466.043 572.369,465.376 572.5,464.5 Z M 435.5,487.5 C 438.001,487.511 438.168,488.178 436,489.5C 435.536,488.906 435.369,488.239 435.5,487.5 Z M 619.5,504.5 C 620.386,503.224 621.386,503.224 622.5,504.5C 621.575,505.562 620.575,505.562 619.5,504.5 Z M 412.5,509.5 C 414.465,509.948 414.798,510.948 413.5,512.5C 411.481,511.867 411.147,510.867 412.5,509.5 Z M 557.5,510.5 C 559.471,514.735 560.805,519.401 561.5,524.5C 562.004,521.658 563.671,520.325 566.5,520.5C 566.5,521.833 566.5,523.167 566.5,524.5C 568.167,524.5 569.833,524.5 571.5,524.5C 571.5,525.5 571.5,526.5 571.5,527.5C 573.167,527.5 574.833,527.5 576.5,527.5C 576.5,528.5 576.5,529.5 576.5,530.5C 577.833,530.5 579.167,530.5 580.5,530.5C 581.167,532.819 581.334,535.153 581,537.5C 579.667,536.167 578.333,536.167 577,537.5C 576.505,539.473 576.338,541.473 576.5,543.5C 572.932,543.759 571.599,545.759 572.5,549.5C 569.482,549.335 566.482,549.502 563.5,550C 562.549,553.057 562.216,556.223 562.5,559.5C 560.856,559.286 559.356,559.62 558,560.5C 557.718,564.039 557.218,567.539 556.5,571C 558.043,575.147 557.209,575.981 554,573.5C 553.741,578.126 553.075,582.793 552,587.5C 549.227,580.195 548.394,572.695 549.5,565C 546.706,555.776 546.873,546.609 550,537.5C 550.5,544.826 550.666,552.159 550.5,559.5C 551.5,559.5 552.5,559.5 553.5,559.5C 553.393,555.465 553.726,551.465 554.5,547.5C 552.674,540.596 552.174,533.596 553,526.5C 553.216,524.616 553.883,522.949 555,521.5C 555.108,528.911 555.775,536.245 557,543.5C 557.333,542.833 557.667,542.167 558,541.5C 558.284,531.165 558.118,520.832 557.5,510.5 Z M 475.5,517.5 C 475.657,518.873 475.49,520.207 475,521.5C 473.989,520.663 472.822,520.33 471.5,520.5C 471.916,517.362 472.083,514.362 472,511.5C 473.459,513.432 474.625,515.432 475.5,517.5 Z M 579.5,525.5 C 582.001,525.511 582.168,526.178 580,527.5C 579.536,526.906 579.369,526.239 579.5,525.5 Z M 453.5,533.5 C 454.793,535.364 454.793,537.364 453.5,539.5C 450.86,537.465 450.86,535.465 453.5,533.5 Z M 498.5,537.5 C 502.127,542.964 502.294,548.63 499,554.5C 498.501,548.843 498.334,543.176 498.5,537.5 Z M 457.5,547.5 C 459.048,547.821 459.715,548.821 459.5,550.5C 456.752,550.598 456.086,549.598 457.5,547.5 Z M 462.5,552.5 C 463.573,553.251 463.74,554.251 463,555.5C 461.272,554.648 461.105,553.648 462.5,552.5 Z M 431.5,584.5 C 434.137,586.154 433.803,586.654 430.5,586C 431.056,585.617 431.389,585.117 431.5,584.5 Z M 450.5,603.5 C 454.416,604.425 454.416,605.425 450.5,606.5C 449.438,605.575 449.438,604.575 450.5,603.5 Z"/></g>
<g><path style="opacity:0.004" fill="#000000" d="M 679.5,443.5 C 685.593,443.139 691.593,443.639 697.5,445C 690.167,445.667 682.833,445.667 675.5,445C 677.058,444.79 678.391,444.29 679.5,443.5 Z"/></g>
<g><path style="opacity:0.004" fill="#000000" d="M 775.5,443.5 C 783.917,443.094 792.251,443.594 800.5,445C 791.5,445.667 782.5,445.667 773.5,445C 774.416,444.722 775.082,444.222 775.5,443.5 Z"/></g>
<g><path style="opacity:0.004" fill="#000000" d="M 835.5,443.5 C 844.276,443.059 852.942,443.559 861.5,445C 852.079,446.178 842.746,446.178 833.5,445C 834.416,444.722 835.082,444.222 835.5,443.5 Z"/></g>
<g><path style="opacity:0.004" fill="#000000" d="M 978.5,443.5 C 986.253,443.104 993.92,443.604 1001.5,445C 988.167,445.667 974.833,445.667 961.5,445C 967.348,444.827 973.015,444.327 978.5,443.5 Z"/></g>
<g><path style="opacity:0.004" fill="#000000" d="M 1026.5,443.5 C 1036,443.029 1045.33,443.529 1054.5,445C 1044.5,445.667 1034.5,445.667 1024.5,445C 1025.42,444.722 1026.08,444.222 1026.5,443.5 Z"/></g>
<g><path style="opacity:0.004" fill="#000000" d="M 1087.5,443.5 C 1096,443.033 1104.34,443.533 1112.5,445C 1103.5,445.667 1094.5,445.667 1085.5,445C 1086.42,444.722 1087.08,444.222 1087.5,443.5 Z"/></g>
<g><path style="opacity:0.004" fill="#000000" d="M 1189.5,443.5 C 1196.35,443.042 1203.01,443.542 1209.5,445C 1201.83,445.667 1194.17,445.667 1186.5,445C 1187.74,444.768 1188.74,444.268 1189.5,443.5 Z"/></g>
<g><path style="opacity:0.058" fill="#000000" d="M 1011.5,455.5 C 1008.12,455.573 1005.12,454.573 1002.5,452.5C 1001.81,453.025 1001.31,453.692 1001,454.5C 980.239,453.31 959.405,452.81 938.5,453C 936.76,454.827 935.093,454.66 933.5,452.5C 932.833,453.167 932.167,453.833 931.5,454.5C 929.167,451.833 926.833,451.833 924.5,454.5C 923.808,453.975 923.308,453.308 923,452.5C 921.271,455.079 919.438,455.079 917.5,452.5C 916.833,453.167 916.167,453.833 915.5,454.5C 910.679,453.221 905.679,452.554 900.5,452.5C 895.833,452.667 891.167,452.833 886.5,453C 883.878,453.923 881.378,455.089 879,456.5C 875.537,454.292 871.87,453.959 868,455.5C 864.179,454.539 860.512,453.205 857,451.5C 850.487,452.815 843.987,452.815 837.5,451.5C 835.878,453.439 834.044,453.772 832,452.5C 828.577,454.957 825.744,457.957 823.5,461.5C 822.521,464.083 821.854,466.749 821.5,469.5C 822.602,474.78 823.269,480.114 823.5,485.5C 822.794,516.691 822.794,547.857 823.5,579C 823.576,585.266 822.909,591.433 821.5,597.5C 821.862,604.938 825.195,609.772 831.5,612C 841.943,614.118 852.276,613.785 862.5,611C 862.167,610.667 861.833,610.333 861.5,610C 866.601,610.329 869.767,607.829 871,602.5C 871.334,590.825 871.834,579.159 872.5,567.5C 872.403,564.468 872.069,561.468 871.5,558.5C 873.402,548.517 873.735,538.517 872.5,528.5C 874.359,525.41 874.692,522.244 873.5,519C 875.592,518.047 875.925,516.714 874.5,515C 876.441,512.298 878.274,509.464 880,506.5C 883.833,504 887,500.833 889.5,497C 895.5,495 901.5,495 907.5,497C 911.236,501.637 914.07,506.804 916,512.5C 919.385,540.591 920.218,568.758 918.5,597C 918.241,602.15 919.741,606.65 923,610.5C 923.383,609.944 923.883,609.611 924.5,609.5C 924.577,610.75 925.244,611.583 926.5,612C 936.148,613.891 945.814,613.891 955.5,612C 958.279,610.278 961.279,609.111 964.5,608.5C 964.523,606.073 965.023,603.74 966,601.5C 966.827,576.261 966.661,551.094 965.5,526C 967.271,522.068 967.604,518.068 966.5,514C 968.146,512.445 968.479,510.779 967.5,509C 968.643,506.968 969.643,504.968 970.5,503C 969.541,500.88 969.374,498.713 970,496.5C 970.333,497.833 970.667,499.167 971,500.5C 971.273,498.671 972.107,497.171 973.5,496C 975.891,495.713 978.224,495.213 980.5,494.5C 981.696,494.846 981.696,495.346 980.5,496C 989.471,499.821 998.471,503.488 1007.5,507C 1011.95,511.091 1015.28,515.424 1017.5,520C 1016.73,522.836 1017.07,525.67 1018.5,528.5C 1018.68,553.908 1018.35,579.074 1017.5,604C 1019.63,608.474 1022.97,611.474 1027.5,613C 1041.87,614.665 1055.54,612.498 1068.5,606.5C 1070.59,606.486 1072.43,607.152 1074,608.5C 1075.02,607.366 1075.68,607.699 1076,609.5C 1076.33,609.167 1076.67,608.833 1077,608.5C 1079.54,611.134 1082.7,612.634 1086.5,613C 1093.83,613.667 1101.17,613.667 1108.5,613C 1111.57,612.853 1114.4,612.02 1117,610.5C 1117.33,610.833 1117.67,611.167 1118,611.5C 1119.82,608.679 1121.99,606.179 1124.5,604C 1123.45,602.612 1123.28,601.112 1124,599.5C 1125,601.935 1125.5,601.602 1125.5,598.5C 1123.95,597.356 1123.29,595.189 1123.5,592C 1124.37,587.18 1124.53,582.347 1124,577.5C 1123.03,581.232 1122.53,580.899 1122.5,576.5C 1124.38,567.914 1123.72,559.58 1120.5,551.5C 1121.01,546.955 1122.01,543.288 1123.5,540.5C 1121.88,538.737 1120.88,535.737 1120.5,531.5C 1121.47,531.013 1122.47,530.513 1123.5,530C 1122.29,529.107 1122.29,528.274 1123.5,527.5C 1125.03,528.861 1126.7,530.028 1128.5,531C 1127.72,532.073 1127.89,533.24 1129,534.5C 1136.58,545.008 1142.91,554.675 1148,563.5C 1156.67,574.691 1165,586.691 1173,599.5C 1175.8,603.299 1178.96,606.799 1182.5,610C 1183.58,610.47 1184.58,610.303 1185.5,609.5C 1194.35,609.826 1203.02,609.493 1211.5,608.5C 1212.17,608.5 1212.83,608.5 1213.5,608.5C 1215.78,608.392 1217.78,607.559 1219.5,606C 1219.04,605.586 1218.71,605.086 1218.5,604.5C 1219.54,603.377 1220.21,602.044 1220.5,600.5C 1220.17,594.204 1220.01,587.871 1220,581.5C 1219.67,582.833 1219.33,584.167 1219,585.5C 1218.5,585 1218,584.5 1217.5,584C 1218.83,563.53 1218.83,543.03 1217.5,522.5C 1218.88,519.924 1219.72,520.258 1220,523.5C 1220.67,514.167 1220.67,504.833 1220,495.5C 1219.78,496.938 1219.28,498.271 1218.5,499.5C 1218.17,498.833 1217.83,498.167 1217.5,497.5C 1218.79,492.147 1218.79,486.813 1217.5,481.5C 1217.81,480.692 1218.31,480.025 1219,479.5C 1219.33,480.833 1219.67,482.167 1220,483.5C 1220.5,477.175 1220.67,470.842 1220.5,464.5C 1217.72,464.911 1217.06,464.078 1218.5,462C 1217.64,456.779 1214.8,454.279 1210,454.5C 1207.89,453.689 1205.89,452.689 1204,451.5C 1201.18,452.771 1198.34,452.771 1195.5,451.5C 1192.78,453.478 1189.95,453.811 1187,452.5C 1186.39,454.481 1185.39,454.815 1184,453.5C 1181.36,455.917 1179.03,459.25 1177,463.5C 1177.04,473.214 1177.21,482.881 1177.5,492.5C 1179.37,504.192 1178.7,515.692 1175.5,527C 1176.9,529.129 1176.24,530.295 1173.5,530.5C 1170.93,529.441 1168.77,527.774 1167,525.5C 1153.13,503.729 1138.8,482.395 1124,461.5C 1120.98,458.399 1117.48,455.899 1113.5,454C 1105.32,453.129 1096.99,452.296 1088.5,451.5C 1085.32,454.305 1081.99,456.139 1078.5,457C 1077.17,458.667 1075.83,460.333 1074.5,462C 1074.83,462.333 1075.17,462.667 1075.5,463C 1073.09,465.698 1070.42,466.032 1067.5,464C 1056.75,451.376 1043.08,447.876 1026.5,453.5C 1025.56,453.392 1024.72,453.059 1024,452.5C 1021.71,454.201 1019.21,455.534 1016.5,456.5C 1016.41,453.261 1017.08,450.261 1018.5,447.5C 1032.84,447.333 1047.17,447.5 1061.5,448C 1062.96,450.016 1064.96,450.849 1067.5,450.5C 1067.5,449.5 1067.5,448.5 1067.5,447.5C 1084.5,447.333 1101.5,447.5 1118.5,448C 1116.62,448.216 1114.95,448.883 1113.5,450C 1116.83,450.333 1120.17,450.667 1123.5,451C 1125.88,453.354 1128.55,455.354 1131.5,457C 1132.79,457.49 1134.13,457.657 1135.5,457.5C 1135.72,461.059 1135.38,464.559 1134.5,468C 1134.83,468.5 1135.17,469 1135.5,469.5C 1136.47,467.604 1136.8,465.604 1136.5,463.5C 1137.82,463.33 1138.99,463.663 1140,464.5C 1140.54,467.812 1140.04,470.979 1138.5,474C 1138.83,474.833 1139.17,475.667 1139.5,476.5C 1141.42,474.997 1142.59,472.997 1143,470.5C 1144.66,472.158 1145.5,474.158 1145.5,476.5C 1148.66,476.529 1150.32,478.196 1150.5,481.5C 1151.63,482.262 1152.79,482.929 1154,483.5C 1154.21,488.258 1154.38,492.925 1154.5,497.5C 1156.46,489.394 1158.13,489.061 1159.5,496.5C 1158.73,499.154 1158.57,501.821 1159,504.5C 1159.76,501.215 1161.09,498.215 1163,495.5C 1166.1,500.878 1165.93,506.212 1162.5,511.5C 1162.83,512.5 1163.5,513.167 1164.5,513.5C 1165.3,511.922 1165.8,510.256 1166,508.5C 1166.33,493.5 1166.67,478.5 1167,463.5C 1167.19,461.1 1167.69,458.766 1168.5,456.5C 1169.09,456.709 1169.59,457.043 1170,457.5C 1170.33,477.833 1170.67,498.167 1171,518.5C 1171.31,519.308 1171.81,519.975 1172.5,520.5C 1173.5,498.177 1173.83,475.843 1173.5,453.5C 1174.83,453.5 1176.17,453.5 1177.5,453.5C 1177.5,452.5 1177.5,451.5 1177.5,450.5C 1180.85,450.665 1184.18,450.498 1187.5,450C 1185.71,448.837 1183.71,448.17 1181.5,448C 1183.83,447.833 1186.17,447.667 1188.5,447.5C 1197.75,447.659 1207.09,447.826 1216.5,448C 1208.45,449.552 1208.61,450.719 1217,451.5C 1217.77,451.355 1218.44,451.022 1219,450.5C 1219.1,453.482 1220.1,456.482 1222,459.5C 1222.15,456.475 1223.65,454.809 1226.5,454.5C 1226.43,456.696 1225.77,458.696 1224.5,460.5C 1223.33,508.83 1223.17,557.163 1224,605.5C 1224.4,606.872 1224.9,608.205 1225.5,609.5C 1225.17,609.833 1224.83,610.167 1224.5,610.5C 1223.75,609.624 1223.25,608.624 1223,607.5C 1220.68,611.314 1217.85,614.648 1214.5,617.5C 1204.41,616.182 1194.07,616.182 1183.5,617.5C 1182.61,616.675 1182.28,615.675 1182.5,614.5C 1180.83,614.5 1179.17,614.5 1177.5,614.5C 1177.65,613.448 1177.48,612.448 1177,611.5C 1175.65,611.554 1174.48,611.054 1173.5,610C 1172.08,601.55 1170.58,601.716 1169,610.5C 1167.28,606.706 1167.11,602.873 1168.5,599C 1167.87,598.25 1167.37,597.416 1167,596.5C 1166.1,598.804 1165.27,601.138 1164.5,603.5C 1164.17,603.333 1163.83,603.167 1163.5,603C 1162.2,599.532 1162.2,596.032 1163.5,592.5C 1163,591.5 1162.5,590.5 1162,589.5C 1161.06,592.121 1160.23,594.788 1159.5,597.5C 1157.24,593.902 1156.91,590.069 1158.5,586C 1158.37,584.941 1157.87,584.108 1157,583.5C 1156.51,585.134 1156.34,586.801 1156.5,588.5C 1155.17,588.5 1153.83,588.5 1152.5,588.5C 1152.3,585.272 1152.63,582.105 1153.5,579C 1153.17,578.5 1152.83,578 1152.5,577.5C 1151.55,579.045 1151.21,580.712 1151.5,582.5C 1150.5,582.5 1149.5,582.5 1148.5,582.5C 1148.01,580.194 1147.67,577.861 1147.5,575.5C 1146.17,575.5 1144.83,575.5 1143.5,575.5C 1143.22,572.223 1143.55,569.057 1144.5,566C 1142.53,563.401 1141.53,564.234 1141.5,568.5C 1140.5,568.5 1139.5,568.5 1138.5,568.5C 1138.64,564.124 1138.8,559.791 1139,555.5C 1138.33,554.167 1137.67,554.167 1137,555.5C 1135.6,572.795 1135.1,590.129 1135.5,607.5C 1134.5,607.5 1133.5,607.5 1132.5,607.5C 1131.95,590.187 1132.11,572.854 1133,555.5C 1133.45,553.464 1134.29,551.63 1135.5,550C 1135.07,548.566 1134.24,547.399 1133,546.5C 1132.95,549.861 1131.95,552.861 1130,555.5C 1128.5,573.838 1128.33,592.172 1129.5,610.5C 1128.18,610.67 1127.01,610.337 1126,609.5C 1125.62,613.442 1123.46,615.109 1119.5,614.5C 1119.72,615.675 1119.39,616.675 1118.5,617.5C 1087.92,616.922 1057.26,616.922 1026.5,617.5C 1021.58,618.024 1017.25,616.858 1013.5,614C 1010.45,613.821 1007.45,613.321 1004.5,612.5C 1001.07,611.303 997.739,609.803 994.5,608C 990.167,607.333 985.833,607.333 981.5,608C 981.043,608.414 980.709,608.914 980.5,609.5C 976.36,609.886 972.694,611.219 969.5,613.5C 968.914,613.291 968.414,612.957 968,612.5C 963.977,614.043 959.977,615.71 956,617.5C 944.742,617.025 933.242,616.859 921.5,617C 919.012,615.538 916.345,614.538 913.5,614C 907.333,613.833 901.167,613.667 895,613.5C 874.273,615.535 853.439,616.868 832.5,617.5C 825.855,616.724 819.188,616.39 812.5,616.5C 812.5,615.5 812.5,614.5 812.5,613.5C 809.412,613.197 807.746,614.53 807.5,617.5C 793.631,616.435 779.631,616.268 765.5,617C 764.91,615.701 763.91,614.868 762.5,614.5C 756.866,613.425 751.199,613.258 745.5,614C 745.043,614.414 744.709,614.914 744.5,615.5C 737.5,615.833 730.5,616.167 723.5,616.5C 703.398,616.611 683.398,616.944 663.5,617.5C 663.5,616.167 663.5,614.833 663.5,613.5C 661.833,613.5 660.167,613.5 658.5,613.5C 659.714,601.454 659.381,589.454 657.5,577.5C 658.146,567.506 658.979,557.506 660,547.5C 660.414,547.043 660.914,546.709 661.5,546.5C 662.665,537.184 662.832,527.851 662,518.5C 661.075,517.953 660.242,517.287 659.5,516.5C 659.686,496.212 659.853,475.879 660,455.5C 661.011,454.663 662.178,454.33 663.5,454.5C 663.33,453.178 663.663,452.011 664.5,451C 667.833,450.667 671.167,450.333 674.5,450C 672.377,448.806 670.043,448.14 667.5,448C 679.022,447.781 690.522,447.281 702,446.5C 704.569,446.533 706.403,447.7 707.5,450C 710.482,450.498 713.482,450.665 716.5,450.5C 716.222,452.346 716.889,453.68 718.5,454.5C 730.476,453.254 742.476,453.254 754.5,454.5C 754.33,453.178 754.663,452.011 755.5,451C 758.167,450.667 760.833,450.333 763.5,450C 765.567,448.016 768.067,446.849 771,446.5C 784.797,447.474 798.63,447.807 812.5,447.5C 812.5,448.5 812.5,449.5 812.5,450.5C 816.514,450.666 820.514,450.499 824.5,450C 830.453,446.11 836.786,445.61 843.5,448.5C 850.805,448.522 858.138,447.855 865.5,446.5C 911.699,446.58 958.033,446.58 1004.5,446.5C 1006.76,446.94 1008.93,447.606 1011,448.5C 1011.5,450.81 1011.66,453.143 1011.5,455.5 Z M 875.5,448.5 C 912.089,449.477 948.422,449.81 984.5,449.5C 946.838,450.667 909.171,450.833 871.5,450C 873.058,449.79 874.391,449.29 875.5,448.5 Z M 1129.5,460.5 C 1131.34,460.639 1131.67,461.306 1130.5,462.5C 1129.7,462.043 1129.37,461.376 1129.5,460.5 Z M 758.5,461.5 C 760.277,481.994 760.611,502.66 759.5,523.5C 758.749,522.624 758.249,521.624 758,520.5C 757.657,500.831 757.824,481.165 758.5,461.5 Z M 741.5,479.5 C 743.833,479.5 746.167,479.5 748.5,479.5C 748.833,481.5 749.167,483.5 749.5,485.5C 750.833,485.5 752.167,485.5 753.5,485.5C 754.134,495.989 753.301,506.323 751,516.5C 750.626,515.584 750.126,514.75 749.5,514C 751.838,508.961 752.005,503.795 750,498.5C 748.309,501.607 747.142,504.941 746.5,508.5C 745.119,508 744.453,507 744.5,505.5C 747.201,501.456 747.034,497.456 744,493.5C 743.229,496.19 742.396,498.856 741.5,501.5C 739.089,499.681 738.922,497.681 741,495.5C 741.667,493.167 741.667,490.833 741,488.5C 739.544,487.08 738.044,485.747 736.5,484.5C 738.567,483.233 740.234,481.567 741.5,479.5 Z M 731.5,480.5 C 732.788,482.035 732.788,483.701 731.5,485.5C 730.948,483.997 730.948,482.331 731.5,480.5 Z M 1143.5,480.5 C 1145.23,480.843 1145.73,481.843 1145,483.5C 1143.96,482.756 1143.46,481.756 1143.5,480.5 Z M 1148.5,486.5 C 1150.34,487.204 1150.84,488.537 1150,490.5C 1148.81,489.437 1148.31,488.103 1148.5,486.5 Z M 735.5,490.5 C 737.465,490.948 737.798,491.948 736.5,493.5C 735.614,492.675 735.281,491.675 735.5,490.5 Z M 971.5,539.5 C 972.826,553.672 972.826,568.006 971.5,582.5C 970.186,568.104 970.186,553.77 971.5,539.5 Z M 1013.5,540.5 C 1014.66,552.993 1014.83,565.66 1014,578.5C 1012.21,565.85 1012.04,553.183 1013.5,540.5 Z M 986.5,543.5 C 990.846,543.334 995.179,543.501 999.5,544C 1000.44,546.719 1000.78,549.552 1000.5,552.5C 1001.82,552.33 1002.99,552.663 1004,553.5C 1004.5,566.162 1004.67,578.829 1004.5,591.5C 1003.17,591.5 1001.83,591.5 1000.5,591.5C 1000.5,592.5 1000.5,593.5 1000.5,594.5C 998.712,594.785 997.045,594.452 995.5,593.5C 993.362,592.256 991.362,590.756 989.5,589C 988.552,588.517 987.552,588.351 986.5,588.5C 987.906,583.069 985.906,580.735 980.5,581.5C 980.5,576.167 980.5,570.833 980.5,565.5C 979.167,565.5 977.833,565.5 976.5,565.5C 976.334,561.486 976.501,557.486 977,553.5C 978.011,552.663 979.178,552.33 980.5,552.5C 979.5,547.5 981.5,545.5 986.5,546.5C 986.5,545.5 986.5,544.5 986.5,543.5 Z M 1146.5,570.5 C 1148.34,571.204 1148.84,572.537 1148,574.5C 1146.81,573.437 1146.31,572.103 1146.5,570.5 Z"/></g>
<g><path style="opacity:0.004" fill="#000000" d="M 467.5,454.5 C 474.344,453.181 481.344,453.181 488.5,454.5C 481.475,455.761 474.475,455.761 467.5,454.5 Z"/></g>
<g><path style="opacity:0.006" fill="#000000" d="M 654.5,457.5 C 655.222,457.918 655.722,458.584 656,459.5C 656.458,493.364 656.292,527.197 655.5,561C 655.818,571.706 656.484,582.372 657.5,593C 656.973,598.907 656.14,604.74 655,610.5C 652.845,605.411 652.012,600.078 652.5,594.5C 651.167,594.5 649.833,594.5 648.5,594.5C 648.334,590.486 648.501,586.486 649,582.5C 651.652,581.847 653.152,580.181 653.5,577.5C 653.531,565.712 652.864,553.878 651.5,542C 652.265,515.174 652.765,488.341 653,461.5C 653.41,460.099 653.91,458.766 654.5,457.5 Z"/></g>
<g><path style="opacity:0.336" fill="#000c0b" d="M 1011.5,455.5 C 1011.5,457.833 1011.5,460.167 1011.5,462.5C 1009.45,460.3 1006.95,458.633 1004,457.5C 1003.67,466.833 1003.33,476.167 1003,485.5C 1002.83,476.324 1002.33,467.324 1001.5,458.5C 1001.39,457.883 1001.06,457.383 1000.5,457C 961.096,456.173 921.762,456.34 882.5,457.5C 879.327,457.401 876.327,458.068 873.5,459.5C 870.71,458.403 867.877,457.403 865,456.5C 863.545,457.58 862.045,457.58 860.5,456.5C 850.584,456.181 840.75,456.514 831,457.5C 830.333,507.5 830.333,557.5 831,607.5C 835.75,608.804 840.75,609.47 846,609.5C 850.833,609.333 855.667,609.167 860.5,609C 861.044,608.283 861.711,607.783 862.5,607.5C 863.333,559.002 863.833,510.335 864,461.5C 864.5,499.499 864.667,537.499 864.5,575.5C 864.168,586.187 864.501,596.854 865.5,607.5C 867.459,605.755 868.792,603.589 869.5,601C 869.648,589.822 869.648,578.489 869.5,567C 871.034,555.047 871.367,543.214 870.5,531.5C 871.06,527.605 871.726,523.772 872.5,520C 872.043,519.586 871.709,519.086 871.5,518.5C 873.799,514.547 874.966,510.547 875,506.5C 876.167,504.667 877.333,502.833 878.5,501C 877.701,499.251 878.368,497.918 880.5,497C 880.167,496.667 879.833,496.333 879.5,496C 881.785,493.003 884.619,492.17 888,493.5C 891.85,492.869 895.683,492.202 899.5,491.5C 901.061,492.347 902.561,492.014 904,490.5C 908.333,490.5 912.667,490.5 917,490.5C 920.885,494.025 921.385,498.191 918.5,503C 919.272,504.221 920.272,505.221 921.5,506C 922.296,537.473 922.296,568.806 921.5,600C 921.966,603.375 922.966,606.542 924.5,609.5C 923.883,609.611 923.383,609.944 923,610.5C 919.741,606.65 918.241,602.15 918.5,597C 920.218,568.758 919.385,540.591 916,512.5C 914.07,506.804 911.236,501.637 907.5,497C 901.5,495 895.5,495 889.5,497C 887,500.833 883.833,504 880,506.5C 878.274,509.464 876.441,512.298 874.5,515C 875.925,516.714 875.592,518.047 873.5,519C 874.692,522.244 874.359,525.41 872.5,528.5C 873.735,538.517 873.402,548.517 871.5,558.5C 872.069,561.468 872.403,564.468 872.5,567.5C 871.834,579.159 871.334,590.825 871,602.5C 869.767,607.829 866.601,610.329 861.5,610C 861.833,610.333 862.167,610.667 862.5,611C 852.276,613.785 841.943,614.118 831.5,612C 825.195,609.772 821.862,604.938 821.5,597.5C 822.909,591.433 823.576,585.266 823.5,579C 822.794,547.857 822.794,516.691 823.5,485.5C 823.269,480.114 822.602,474.78 821.5,469.5C 821.854,466.749 822.521,464.083 823.5,461.5C 825.744,457.957 828.577,454.957 832,452.5C 834.044,453.772 835.878,453.439 837.5,451.5C 843.987,452.815 850.487,452.815 857,451.5C 860.512,453.205 864.179,454.539 868,455.5C 871.87,453.959 875.537,454.292 879,456.5C 881.378,455.089 883.878,453.923 886.5,453C 891.167,452.833 895.833,452.667 900.5,452.5C 905.679,452.554 910.679,453.221 915.5,454.5C 916.167,453.833 916.833,453.167 917.5,452.5C 919.438,455.079 921.271,455.079 923,452.5C 923.308,453.308 923.808,453.975 924.5,454.5C 926.833,451.833 929.167,451.833 931.5,454.5C 932.167,453.833 932.833,453.167 933.5,452.5C 935.093,454.66 936.76,454.827 938.5,453C 959.405,452.81 980.239,453.31 1001,454.5C 1001.31,453.692 1001.81,453.025 1002.5,452.5C 1005.12,454.573 1008.12,455.573 1011.5,455.5 Z"/></g>
<g><path style="opacity:0.994" fill="#00e38a" d="M 1001.5,458.5 C 1001.67,467.506 1001.5,476.506 1001,485.5C 1000.62,486.056 1000.12,486.389 999.5,486.5C 985.833,486.5 972.167,486.5 958.5,486.5C 958.5,526.5 958.5,566.5 958.5,606.5C 957.909,607.151 957.243,607.818 956.5,608.5C 947.19,609.498 937.857,609.832 928.5,609.5C 928.167,608.5 927.5,607.833 926.5,607.5C 926.5,567.167 926.5,526.833 926.5,486.5C 912.5,486.5 898.5,486.5 884.5,486.5C 883.542,486.047 882.708,485.381 882,484.5C 881.196,475.422 881.363,466.422 882.5,457.5C 921.762,456.34 961.096,456.173 1000.5,457C 1001.06,457.383 1001.39,457.883 1001.5,458.5 Z"/></g>
<g><path style="opacity:0.817" fill="#031a18" d="M 1011.5,462.5 C 1011.5,472.833 1011.5,483.167 1011.5,493.5C 1006.49,492.582 1001.16,491.249 995.5,489.5C 985.556,489.625 975.556,489.792 965.5,490C 965.5,491.667 965.5,493.333 965.5,495C 964.484,495.519 963.818,496.353 963.5,497.5C 963.92,500.954 964.253,504.454 964.5,508C 963.13,511.375 962.13,514.875 961.5,518.5C 961.832,532.615 962.165,547.115 962.5,562C 961.676,576.092 961.176,590.259 961,604.5C 960.5,565.835 960.333,527.168 960.5,488.5C 973.677,488.829 986.677,488.495 999.5,487.5C 999.5,487.167 999.5,486.833 999.5,486.5C 1000.12,486.389 1000.62,486.056 1001,485.5C 1001.5,476.506 1001.67,467.506 1001.5,458.5C 1002.33,467.324 1002.83,476.324 1003,485.5C 1003.33,476.167 1003.67,466.833 1004,457.5C 1006.95,458.633 1009.45,460.3 1011.5,462.5 Z"/></g>
<g><path style="opacity:0.628" fill="#01110f" d="M 1177.5,492.5 C 1178.33,482.675 1178.83,472.675 1179,462.5C 1179.24,460.881 1180.07,459.881 1181.5,459.5C 1181.83,490.671 1181.5,521.671 1180.5,552.5C 1180.17,551.5 1179.5,550.833 1178.5,550.5C 1174.99,544.148 1170.99,538.148 1166.5,532.5C 1163.23,526.299 1159.23,520.632 1154.5,515.5C 1145.88,502.219 1136.88,489.219 1127.5,476.5C 1125.56,472.293 1122.9,468.627 1119.5,465.5C 1117.89,462.462 1115.89,459.629 1113.5,457C 1104.17,456.333 1094.83,456.333 1085.5,457C 1084.94,457.383 1084.61,457.883 1084.5,458.5C 1083.6,459.598 1082.77,459.598 1082,458.5C 1081.08,462.946 1079.58,467.112 1077.5,471C 1078.35,474.338 1078.02,477.671 1076.5,481C 1077.04,506.407 1077.71,531.907 1078.5,557.5C 1076.84,560.77 1076.51,564.103 1077.5,567.5C 1076.96,568.741 1076.3,569.908 1075.5,571C 1075.88,573.618 1075.88,576.118 1075.5,578.5C 1073.3,580.852 1073.3,583.352 1075.5,586C 1074.68,587.923 1074.02,589.923 1073.5,592C 1073.91,592.945 1074.57,593.612 1075.5,594C 1075.06,596.398 1075.73,598.731 1077.5,601C 1077.17,601.333 1076.83,601.667 1076.5,602C 1078,604.167 1079.83,606 1082,607.5C 1082.34,605.381 1083.18,605.047 1084.5,606.5C 1084.5,607.167 1084.83,607.5 1085.5,607.5C 1089.78,608.827 1094.45,609.493 1099.5,609.5C 1104.17,609.333 1108.83,609.167 1113.5,609C 1114.94,608.623 1115.94,607.79 1116.5,606.5C 1117.17,575.167 1117.83,543.833 1118.5,512.5C 1118.5,512.833 1118.5,513.167 1118.5,513.5C 1118.1,519.654 1118.77,525.654 1120.5,531.5C 1120.88,535.737 1121.88,538.737 1123.5,540.5C 1122.01,543.288 1121.01,546.955 1120.5,551.5C 1123.72,559.58 1124.38,567.914 1122.5,576.5C 1122.53,580.899 1123.03,581.232 1124,577.5C 1124.53,582.347 1124.37,587.18 1123.5,592C 1123.29,595.189 1123.95,597.356 1125.5,598.5C 1125.5,601.602 1125,601.935 1124,599.5C 1123.28,601.112 1123.45,602.612 1124.5,604C 1121.99,606.179 1119.82,608.679 1118,611.5C 1117.67,611.167 1117.33,610.833 1117,610.5C 1114.4,612.02 1111.57,612.853 1108.5,613C 1101.17,613.667 1093.83,613.667 1086.5,613C 1082.7,612.634 1079.54,611.134 1077,608.5C 1076.67,608.833 1076.33,609.167 1076,609.5C 1075.68,607.699 1075.02,607.366 1074,608.5C 1072.43,607.152 1070.59,606.486 1068.5,606.5C 1055.54,612.498 1041.87,614.665 1027.5,613C 1022.97,611.474 1019.63,608.474 1017.5,604C 1018.35,579.074 1018.68,553.908 1018.5,528.5C 1017.07,525.67 1016.73,522.836 1017.5,520C 1015.28,515.424 1011.95,511.091 1007.5,507C 998.471,503.488 989.471,499.821 980.5,496C 981.696,495.346 981.696,494.846 980.5,494.5C 978.224,495.213 975.891,495.713 973.5,496C 972.107,497.171 971.273,498.671 971,500.5C 970.667,499.167 970.333,497.833 970,496.5C 969.374,498.713 969.541,500.88 970.5,503C 969.643,504.968 968.643,506.968 967.5,509C 968.479,510.779 968.146,512.445 966.5,514C 967.604,518.068 967.271,522.068 965.5,526C 966.661,551.094 966.827,576.261 966,601.5C 965.023,603.74 964.523,606.073 964.5,608.5C 961.279,609.111 958.279,610.278 955.5,612C 945.814,613.891 936.148,613.891 926.5,612C 925.244,611.583 924.577,610.75 924.5,609.5C 925.702,608.595 927.036,608.595 928.5,609.5C 937.857,609.832 947.19,609.498 956.5,608.5C 957.243,607.818 957.909,607.151 958.5,606.5C 959.499,567.004 959.832,527.337 959.5,487.5C 972.833,487.5 986.167,487.5 999.5,487.5C 986.677,488.495 973.677,488.829 960.5,488.5C 960.333,527.168 960.5,565.835 961,604.5C 961.176,590.259 961.676,576.092 962.5,562C 962.165,547.115 961.832,532.615 961.5,518.5C 962.13,514.875 963.13,511.375 964.5,508C 964.253,504.454 963.92,500.954 963.5,497.5C 963.818,496.353 964.484,495.519 965.5,495C 965.5,493.333 965.5,491.667 965.5,490C 975.556,489.792 985.556,489.625 995.5,489.5C 1001.16,491.249 1006.49,492.582 1011.5,493.5C 1013.15,495.812 1015.15,497.812 1017.5,499.5C 1018.48,499.023 1019.31,498.357 1020,497.5C 1020.67,488.5 1020.67,479.5 1020,470.5C 1019.58,468.709 1018.58,467.376 1017,466.5C 1016.5,463.183 1016.33,459.85 1016.5,456.5C 1019.21,455.534 1021.71,454.201 1024,452.5C 1024.72,453.059 1025.56,453.392 1026.5,453.5C 1043.08,447.876 1056.75,451.376 1067.5,464C 1070.42,466.032 1073.09,465.698 1075.5,463C 1075.17,462.667 1074.83,462.333 1074.5,462C 1075.83,460.333 1077.17,458.667 1078.5,457C 1081.99,456.139 1085.32,454.305 1088.5,451.5C 1096.99,452.296 1105.32,453.129 1113.5,454C 1117.48,455.899 1120.98,458.399 1124,461.5C 1138.8,482.395 1153.13,503.729 1167,525.5C 1168.77,527.774 1170.93,529.441 1173.5,530.5C 1176.24,530.295 1176.9,529.129 1175.5,527C 1178.7,515.692 1179.37,504.192 1177.5,492.5 Z M 1129.5,460.5 C 1129.37,461.376 1129.7,462.043 1130.5,462.5C 1131.67,461.306 1131.34,460.639 1129.5,460.5 Z M 1143.5,480.5 C 1143.46,481.756 1143.96,482.756 1145,483.5C 1145.73,481.843 1145.23,480.843 1143.5,480.5 Z M 1148.5,486.5 C 1148.31,488.103 1148.81,489.437 1150,490.5C 1150.84,488.537 1150.34,487.204 1148.5,486.5 Z M 971.5,539.5 C 970.186,553.77 970.186,568.104 971.5,582.5C 972.826,568.006 972.826,553.672 971.5,539.5 Z M 1013.5,540.5 C 1012.04,553.183 1012.21,565.85 1014,578.5C 1014.83,565.66 1014.66,552.993 1013.5,540.5 Z M 986.5,543.5 C 986.5,544.5 986.5,545.5 986.5,546.5C 981.5,545.5 979.5,547.5 980.5,552.5C 979.178,552.33 978.011,552.663 977,553.5C 976.501,557.486 976.334,561.486 976.5,565.5C 977.833,565.5 979.167,565.5 980.5,565.5C 980.5,570.833 980.5,576.167 980.5,581.5C 985.906,580.735 987.906,583.069 986.5,588.5C 987.552,588.351 988.552,588.517 989.5,589C 991.362,590.756 993.362,592.256 995.5,593.5C 997.045,594.452 998.712,594.785 1000.5,594.5C 1000.5,593.5 1000.5,592.5 1000.5,591.5C 1001.83,591.5 1003.17,591.5 1004.5,591.5C 1004.67,578.829 1004.5,566.162 1004,553.5C 1002.99,552.663 1001.82,552.33 1000.5,552.5C 1000.78,549.552 1000.44,546.719 999.5,544C 995.179,543.501 990.846,543.334 986.5,543.5 Z"/></g>
<g><path style="opacity:0.993" fill="#00e68b" d="M 1212.5,457.5 C 1213.48,479.788 1213.81,502.121 1213.5,524.5C 1212.83,551.336 1212.17,578.336 1211.5,605.5C 1210.5,606 1209.5,606.5 1208.5,607C 1201.17,607.667 1193.83,607.667 1186.5,607C 1184.85,605.445 1184.52,603.779 1185.5,602C 1182.8,601.319 1180.47,600.152 1178.5,598.5C 1172.48,590.464 1166.81,582.13 1161.5,573.5C 1161.23,571.549 1161.89,570.049 1163.5,569C 1162.83,568.667 1162.17,568.333 1161.5,568C 1164.27,564.364 1164.1,560.864 1161,557.5C 1160.59,557.957 1160.09,558.291 1159.5,558.5C 1159.17,557.5 1158.83,556.5 1158.5,555.5C 1159.07,553.796 1159.07,552.296 1158.5,551C 1160.95,549.386 1160.78,547.886 1158,546.5C 1156.42,547.295 1156.25,548.462 1157.5,550C 1156.73,551.221 1155.73,552.221 1154.5,553C 1154.72,554.799 1155.05,556.632 1155.5,558.5C 1154.43,558.36 1153.26,558.36 1152,558.5C 1151.75,556.567 1151.25,554.734 1150.5,553C 1151.25,551.513 1152.09,551.346 1153,552.5C 1153.68,551.216 1153.52,550.049 1152.5,549C 1153.74,549.077 1154.74,548.911 1155.5,548.5C 1154.97,546.77 1153.97,545.436 1152.5,544.5C 1151.72,547.534 1150.39,550.2 1148.5,552.5C 1147.74,551.372 1147.07,550.205 1146.5,549C 1150.06,545.119 1150.4,540.952 1147.5,536.5C 1145.27,537.304 1144.94,538.637 1146.5,540.5C 1146.36,542.107 1145.7,543.441 1144.5,544.5C 1143.5,544.167 1142.83,543.5 1142.5,542.5C 1142.86,540.008 1143.69,537.342 1145,534.5C 1146.72,534.589 1148.55,534.256 1150.5,533.5C 1152.17,534.88 1153.84,536.213 1155.5,537.5C 1156.52,535.54 1158.52,533.873 1161.5,532.5C 1163.89,535.44 1165.56,538.773 1166.5,542.5C 1167.5,543.167 1168.5,543.833 1169.5,544.5C 1168.43,546.325 1169.1,547.492 1171.5,548C 1170.83,548.667 1170.17,549.333 1169.5,550C 1172.64,550.878 1175.64,551.045 1178.5,550.5C 1179.5,550.833 1180.17,551.5 1180.5,552.5C 1180.37,553.376 1180.7,554.043 1181.5,554.5C 1182.33,522.839 1182.83,491.172 1183,459.5C 1183.72,458.956 1184.22,458.289 1184.5,457.5C 1193.74,456.184 1203.07,456.184 1212.5,457.5 Z"/></g>
<g><path style="opacity:0.006" fill="#000000" d="M 1228.5,457.5 C 1229.5,457.5 1230.5,457.5 1231.5,457.5C 1231.83,507.504 1231.5,557.504 1230.5,607.5C 1229.52,607.023 1228.69,606.357 1228,605.5C 1227.83,601.5 1227.67,597.5 1227.5,593.5C 1228.3,548.208 1228.64,502.875 1228.5,457.5 Z"/></g>
<g><path style="opacity:0.898" fill="#061d1b" d="M 860.5,456.5 C 862.045,457.58 863.545,457.58 865,456.5C 867.877,457.403 870.71,458.403 873.5,459.5C 876.327,458.068 879.327,457.401 882.5,457.5C 881.363,466.422 881.196,475.422 882,484.5C 882.708,485.381 883.542,486.047 884.5,486.5C 884.5,486.833 884.5,487.167 884.5,487.5C 890.081,488.351 896.415,488.851 903.5,489C 895.346,490.472 887.18,490.305 879,488.5C 877.893,488.585 876.893,488.919 876,489.5C 875.265,491.871 874.432,494.205 873.5,496.5C 874.974,500.884 873.974,505.051 870.5,509C 870.957,509.414 871.291,509.914 871.5,510.5C 871.025,512.897 870.025,515.397 868.5,518C 869.031,530.548 869.031,543.382 868.5,556.5C 868.674,558.693 868.007,560.527 866.5,562C 867.576,567.794 867.409,573.628 866,579.5C 865.79,577.942 865.29,576.609 864.5,575.5C 864.667,537.499 864.5,499.499 864,461.5C 863.833,510.335 863.333,559.002 862.5,607.5C 862.667,557.832 862.5,508.166 862,458.5C 861.283,457.956 860.783,457.289 860.5,456.5 Z"/></g>
<g><path style="opacity:0.852" fill="#001616" d="M 1057.5,458.5 C 1060,463.212 1062,468.212 1063.5,473.5C 1063.17,474.167 1062.83,474.833 1062.5,475.5C 1063.55,478.747 1064.22,482.08 1064.5,485.5C 1064.43,495.072 1064.43,504.739 1064.5,514.5C 1064.1,517.761 1063.43,520.928 1062.5,524C 1062.45,529.788 1062.79,535.621 1063.5,541.5C 1062.97,542.192 1062.31,542.692 1061.5,543C 1062.78,546.938 1063.78,550.938 1064.5,555C 1062.44,557.034 1062.77,559.034 1065.5,561C 1065.03,564.312 1064.69,567.646 1064.5,571C 1065.31,572.784 1065.98,574.617 1066.5,576.5C 1065.84,579.83 1065.84,583.33 1066.5,587C 1065.89,589.515 1064.89,591.848 1063.5,594C 1063.3,598.597 1061.47,602.763 1058,606.5C 1057.5,557.168 1057.33,507.834 1057.5,458.5 Z"/></g>
<g><path style="opacity:0.992" fill="#00e089" d="M 1119.5,465.5 C 1119.98,470.814 1122.65,474.48 1127.5,476.5C 1136.88,489.219 1145.88,502.219 1154.5,515.5C 1156,520.643 1158.33,525.309 1161.5,529.5C 1163.36,530.26 1165.03,531.26 1166.5,532.5C 1170.99,538.148 1174.99,544.148 1178.5,550.5C 1175.64,551.045 1172.64,550.878 1169.5,550C 1170.17,549.333 1170.83,548.667 1171.5,548C 1169.1,547.492 1168.43,546.325 1169.5,544.5C 1168.5,543.833 1167.5,543.167 1166.5,542.5C 1165.56,538.773 1163.89,535.44 1161.5,532.5C 1158.52,533.873 1156.52,535.54 1155.5,537.5C 1153.84,536.213 1152.17,534.88 1150.5,533.5C 1148.55,534.256 1146.72,534.589 1145,534.5C 1143.69,537.342 1142.86,540.008 1142.5,542.5C 1142.83,543.5 1143.5,544.167 1144.5,544.5C 1145.7,543.441 1146.36,542.107 1146.5,540.5C 1144.94,538.637 1145.27,537.304 1147.5,536.5C 1150.4,540.952 1150.06,545.119 1146.5,549C 1147.07,550.205 1147.74,551.372 1148.5,552.5C 1150.39,550.2 1151.72,547.534 1152.5,544.5C 1153.97,545.436 1154.97,546.77 1155.5,548.5C 1154.74,548.911 1153.74,549.077 1152.5,549C 1153.52,550.049 1153.68,551.216 1153,552.5C 1152.09,551.346 1151.25,551.513 1150.5,553C 1151.25,554.734 1151.75,556.567 1152,558.5C 1153.26,558.36 1154.43,558.36 1155.5,558.5C 1155.05,556.632 1154.72,554.799 1154.5,553C 1155.73,552.221 1156.73,551.221 1157.5,550C 1156.25,548.462 1156.42,547.295 1158,546.5C 1160.78,547.886 1160.95,549.386 1158.5,551C 1159.07,552.296 1159.07,553.796 1158.5,555.5C 1158.83,556.5 1159.17,557.5 1159.5,558.5C 1160.09,558.291 1160.59,557.957 1161,557.5C 1164.1,560.864 1164.27,564.364 1161.5,568C 1162.17,568.333 1162.83,568.667 1163.5,569C 1161.89,570.049 1161.23,571.549 1161.5,573.5C 1147.45,554.114 1133.78,534.448 1120.5,514.5C 1122.47,514.739 1124.3,514.406 1126,513.5C 1127.62,514.536 1127.78,515.703 1126.5,517C 1129.54,517.359 1129.88,518.026 1127.5,519C 1128.02,519.561 1128.36,520.228 1128.5,521C 1128.85,522.257 1129.52,522.591 1130.5,522C 1131.22,520.013 1132.22,518.179 1133.5,516.5C 1132.01,516.467 1130.68,515.967 1129.5,515C 1128.65,512.951 1128.65,510.618 1129.5,508C 1128.83,507.667 1128.17,507.333 1127.5,507C 1131.52,505.428 1131.36,504.261 1127,503.5C 1126.68,505.301 1126.02,505.634 1125,504.5C 1124.03,506.26 1122.87,506.594 1121.5,505.5C 1122.03,504.808 1122.69,504.308 1123.5,504C 1120.98,502.036 1118.32,501.37 1115.5,502C 1116.33,501.085 1117.33,500.419 1118.5,500C 1117.03,499.365 1115.7,498.531 1114.5,497.5C 1112.79,498.609 1112.12,497.942 1112.5,495.5C 1114.17,495.5 1115.83,495.5 1117.5,495.5C 1117.5,496.5 1117.5,497.5 1117.5,498.5C 1119.68,499.204 1121.68,499.537 1123.5,499.5C 1124.71,498.726 1124.71,497.893 1123.5,497C 1124.17,496.667 1124.83,496.333 1125.5,496C 1123.94,494.401 1122.28,492.901 1120.5,491.5C 1119.89,492.587 1120.23,493.754 1121.5,495C 1120.55,495.483 1119.55,495.649 1118.5,495.5C 1118.65,494.448 1118.48,493.448 1118,492.5C 1116.76,494.421 1115.26,494.754 1113.5,493.5C 1115.03,492.716 1116.7,491.716 1118.5,490.5C 1119.59,487.599 1118.75,485.266 1116,483.5C 1117.1,492.085 1116.1,492.418 1113,484.5C 1111.51,488.304 1110.67,487.971 1110.5,483.5C 1111.87,483.657 1113.21,483.49 1114.5,483C 1112,480.74 1112.67,479.407 1116.5,479C 1115.33,477.5 1114.17,476 1113,474.5C 1110.52,478.655 1109.69,478.488 1110.5,474C 1110.24,472.739 1109.57,471.739 1108.5,471C 1109.52,469.951 1109.68,468.784 1109,467.5C 1108.33,466.167 1107.67,466.167 1107,467.5C 1106.81,469.9 1106.31,472.234 1105.5,474.5C 1104.83,474.833 1104.17,475.167 1103.5,475.5C 1102.62,474.24 1101.62,473.074 1100.5,472C 1102.1,470.029 1102.27,468.196 1101,466.5C 1099.51,467.253 1099.35,468.086 1100.5,469C 1099.55,469.617 1098.72,469.451 1098,468.5C 1097.67,469.5 1097.33,470.5 1097,471.5C 1096.65,469.152 1095.49,467.319 1093.5,466C 1096.03,465.331 1096.03,464.498 1093.5,463.5C 1092.06,465.401 1090.4,465.734 1088.5,464.5C 1087.85,462.376 1087.02,460.376 1086,458.5C 1085.5,508.166 1085.33,557.832 1085.5,607.5C 1084.83,607.5 1084.5,607.167 1084.5,606.5C 1084.5,557.167 1084.5,507.833 1084.5,458.5C 1084.61,457.883 1084.94,457.383 1085.5,457C 1094.83,456.333 1104.17,456.333 1113.5,457C 1115.89,459.629 1117.89,462.462 1119.5,465.5 Z"/></g>
<g><path style="opacity:0.643" fill="#02120f" d="M 799.5,609.5 C 799.783,608.711 800.283,608.044 801,607.5C 801.5,578.835 801.667,550.169 801.5,521.5C 801.667,500.164 801.5,478.831 801,457.5C 790.91,456.348 780.744,456.181 770.5,457C 769.748,457.671 769.414,458.504 769.5,459.5C 768.833,490.5 768.167,521.5 767.5,552.5C 759.167,541.167 750.833,529.833 742.5,518.5C 741.567,515.63 739.9,513.296 737.5,511.5C 726.267,494.717 714.767,478.05 703,461.5C 701.549,459.536 699.716,458.203 697.5,457.5C 689.01,456.343 680.343,456.176 671.5,457C 671,457.5 670.5,458 670,458.5C 669.168,508.335 669.335,558.002 670.5,607.5C 670.611,608.117 670.944,608.617 671.5,609C 680.833,609.667 690.167,609.667 699.5,609C 700.066,608.005 700.733,607.172 701.5,606.5C 702.167,575.167 702.833,543.833 703.5,512.5C 710.758,522.689 717.758,533.022 724.5,543.5C 725.363,544.94 725.363,546.274 724.5,547.5C 736.641,567.644 749.975,586.977 764.5,605.5C 766.805,606.1 769.139,607.1 771.5,608.5C 779.65,609.493 787.983,609.826 796.5,609.5C 796.414,610.496 796.748,611.329 797.5,612C 789.33,613.505 780.996,613.505 772.5,612C 765.251,609.625 760.251,605.459 757.5,599.5C 746.747,587.912 736.913,575.578 728,562.5C 724.02,552.651 719.52,544.151 714.5,537C 713.237,533.655 711.404,530.155 709,526.5C 707.911,530.048 707.411,533.715 707.5,537.5C 708.117,555.837 708.783,574.17 709.5,592.5C 709.464,597.72 708.464,602.72 706.5,607.5C 704.062,610.569 701.062,611.569 697.5,610.5C 696.304,610.846 696.304,611.346 697.5,612C 689.167,612.667 680.833,612.667 672.5,612C 670.24,610.665 668.073,609.165 666,607.5C 665.383,606.551 665.549,605.718 666.5,605C 664.408,604.047 664.075,602.714 665.5,601C 664.262,601.077 663.262,600.911 662.5,600.5C 663.112,599.005 663.112,597.338 662.5,595.5C 662.701,591.576 663.201,591.576 664,595.5C 664.692,594.975 665.192,594.308 665.5,593.5C 664.535,586.851 664.035,580.185 664,573.5C 664.434,577.223 665.268,577.39 666.5,574C 665.637,568.702 664.97,563.368 664.5,558C 664.305,555.648 664.972,553.648 666.5,552C 665.833,551.667 665.167,551.333 664.5,551C 665.743,549.13 666.41,546.964 666.5,544.5C 667.299,539.567 667.632,534.734 667.5,530C 666.833,526.333 666.167,522.667 665.5,519C 665.833,518.667 666.167,518.333 666.5,518C 665.484,517.481 664.818,516.647 664.5,515.5C 665.318,508.975 666.318,502.475 667.5,496C 665.301,483.183 665.134,470.35 667,457.5C 668.935,455.898 671.101,454.731 673.5,454C 678.158,453.529 682.658,452.696 687,451.5C 696.655,451.912 704.822,456.079 711.5,464C 713.432,467.047 715.766,470.38 718.5,474C 718.167,474.333 717.833,474.667 717.5,475C 720.707,476.135 722.041,478.135 721.5,481C 724.431,481.859 725.431,483.525 724.5,486C 727.9,492.727 732.4,498.56 738,503.5C 743.163,511.933 748.497,519.6 754,526.5C 756.423,529.249 758.423,532.249 760,535.5C 761.509,534.91 763.009,534.244 764.5,533.5C 763.644,530.721 762.977,527.888 762.5,525C 764.146,519.458 765.146,513.791 765.5,508C 762.13,495.621 761.797,483.121 764.5,470.5C 764.428,467.034 764.095,463.868 763.5,461C 767.332,456.379 772.165,453.212 778,451.5C 778.945,451.905 779.612,452.572 780,453.5C 785.802,452.813 791.635,452.146 797.5,451.5C 803.262,453.769 807.429,458.102 810,464.5C 809.293,497.658 808.46,530.824 807.5,564C 807.402,574.552 808.069,585.052 809.5,595.5C 809.216,598.92 808.549,602.253 807.5,605.5C 807.709,606.086 808.043,606.586 808.5,607C 806.96,608.851 805.46,610.018 804,610.5C 802.984,609.366 802.317,609.699 802,611.5C 801.292,610.619 800.458,609.953 799.5,609.5 Z M 758.5,461.5 C 757.824,481.165 757.657,500.831 758,520.5C 758.249,521.624 758.749,522.624 759.5,523.5C 760.611,502.66 760.277,481.994 758.5,461.5 Z M 741.5,479.5 C 740.234,481.567 738.567,483.233 736.5,484.5C 738.044,485.747 739.544,487.08 741,488.5C 741.667,490.833 741.667,493.167 741,495.5C 738.922,497.681 739.089,499.681 741.5,501.5C 742.396,498.856 743.229,496.19 744,493.5C 747.034,497.456 747.201,501.456 744.5,505.5C 744.453,507 745.119,508 746.5,508.5C 747.142,504.941 748.309,501.607 750,498.5C 752.005,503.795 751.838,508.961 749.5,514C 750.126,514.75 750.626,515.584 751,516.5C 753.301,506.323 754.134,495.989 753.5,485.5C 752.167,485.5 750.833,485.5 749.5,485.5C 749.167,483.5 748.833,481.5 748.5,479.5C 746.167,479.5 743.833,479.5 741.5,479.5 Z M 731.5,480.5 C 730.948,482.331 730.948,483.997 731.5,485.5C 732.788,483.701 732.788,482.035 731.5,480.5 Z M 735.5,490.5 C 735.281,491.675 735.614,492.675 736.5,493.5C 737.798,491.948 737.465,490.948 735.5,490.5 Z"/></g>
<g><path style="opacity:0.994" fill="#00e48a" d="M 801.5,521.5 C 800.833,549.336 800.167,577.336 799.5,605.5C 789.906,607.739 780.24,608.072 770.5,606.5C 755.167,585.5 739.833,564.5 724.5,543.5C 717.758,533.022 710.758,522.689 703.5,512.5C 703.217,511.711 702.717,511.044 702,510.5C 701.5,542.498 701.333,574.498 701.5,606.5C 700.733,607.172 700.066,608.005 699.5,609C 690.167,609.667 680.833,609.667 671.5,609C 670.944,608.617 670.611,608.117 670.5,607.5C 670.333,558.166 670.5,508.832 671,459.5C 671.5,459 672,458.5 672.5,458C 680.827,457.5 689.16,457.334 697.5,457.5C 699.716,458.203 701.549,459.536 703,461.5C 714.767,478.05 726.267,494.717 737.5,511.5C 738.15,513.435 738.483,515.435 738.5,517.5C 739.959,517.433 741.292,517.766 742.5,518.5C 750.833,529.833 759.167,541.167 767.5,552.5C 767.461,553.756 767.961,554.756 769,555.5C 769.5,523.502 769.667,491.502 769.5,459.5C 769.414,458.504 769.748,457.671 770.5,457C 780.744,456.181 790.91,456.348 801,457.5C 801.5,478.831 801.667,500.164 801.5,521.5 Z M 758.5,461.5 C 757.824,481.165 757.657,500.831 758,520.5C 758.249,521.624 758.749,522.624 759.5,523.5C 760.611,502.66 760.277,481.994 758.5,461.5 Z M 741.5,479.5 C 740.234,481.567 738.567,483.233 736.5,484.5C 738.044,485.747 739.544,487.08 741,488.5C 741.667,490.833 741.667,493.167 741,495.5C 738.922,497.681 739.089,499.681 741.5,501.5C 742.396,498.856 743.229,496.19 744,493.5C 747.034,497.456 747.201,501.456 744.5,505.5C 744.453,507 745.119,508 746.5,508.5C 747.142,504.941 748.309,501.607 750,498.5C 752.005,503.795 751.838,508.961 749.5,514C 750.126,514.75 750.626,515.584 751,516.5C 753.301,506.323 754.134,495.989 753.5,485.5C 752.167,485.5 750.833,485.5 749.5,485.5C 749.167,483.5 748.833,481.5 748.5,479.5C 746.167,479.5 743.833,479.5 741.5,479.5 Z M 731.5,480.5 C 730.948,482.331 730.948,483.997 731.5,485.5C 732.788,483.701 732.788,482.035 731.5,480.5 Z M 735.5,490.5 C 735.281,491.675 735.614,492.675 736.5,493.5C 737.798,491.948 737.465,490.948 735.5,490.5 Z"/></g>
<g><path style="opacity:0.849" fill="#051c19" d="M 1084.5,458.5 C 1084.5,507.833 1084.5,557.167 1084.5,606.5C 1083.18,605.047 1082.34,605.381 1082,607.5C 1079.83,606 1078,604.167 1076.5,602C 1076.83,601.667 1077.17,601.333 1077.5,601C 1075.73,598.731 1075.06,596.398 1075.5,594C 1074.57,593.612 1073.91,592.945 1073.5,592C 1074.02,589.923 1074.68,587.923 1075.5,586C 1073.3,583.352 1073.3,580.852 1075.5,578.5C 1075.88,576.118 1075.88,573.618 1075.5,571C 1076.3,569.908 1076.96,568.741 1077.5,567.5C 1076.51,564.103 1076.84,560.77 1078.5,557.5C 1077.71,531.907 1077.04,506.407 1076.5,481C 1078.02,477.671 1078.35,474.338 1077.5,471C 1079.58,467.112 1081.08,462.946 1082,458.5C 1082.77,459.598 1083.6,459.598 1084.5,458.5 Z"/></g>
<g><path style="opacity:0.452" fill="#000a0a" d="M 1213.5,608.5 C 1214.66,558.571 1214.83,508.571 1214,458.5C 1213.62,457.944 1213.12,457.611 1212.5,457.5C 1203.07,456.184 1193.74,456.184 1184.5,457.5C 1182.97,457.427 1181.97,458.094 1181.5,459.5C 1180.07,459.881 1179.24,460.881 1179,462.5C 1178.83,472.675 1178.33,482.675 1177.5,492.5C 1177.21,482.881 1177.04,473.214 1177,463.5C 1179.03,459.25 1181.36,455.917 1184,453.5C 1185.39,454.815 1186.39,454.481 1187,452.5C 1189.95,453.811 1192.78,453.478 1195.5,451.5C 1198.34,452.771 1201.18,452.771 1204,451.5C 1205.89,452.689 1207.89,453.689 1210,454.5C 1214.8,454.279 1217.64,456.779 1218.5,462C 1217.06,464.078 1217.72,464.911 1220.5,464.5C 1220.67,470.842 1220.5,477.175 1220,483.5C 1219.67,482.167 1219.33,480.833 1219,479.5C 1218.31,480.025 1217.81,480.692 1217.5,481.5C 1218.79,486.813 1218.79,492.147 1217.5,497.5C 1217.83,498.167 1218.17,498.833 1218.5,499.5C 1219.28,498.271 1219.78,496.938 1220,495.5C 1220.67,504.833 1220.67,514.167 1220,523.5C 1219.72,520.258 1218.88,519.924 1217.5,522.5C 1218.83,543.03 1218.83,563.53 1217.5,584C 1218,584.5 1218.5,585 1219,585.5C 1219.33,584.167 1219.67,582.833 1220,581.5C 1220.01,587.871 1220.17,594.204 1220.5,600.5C 1220.21,602.044 1219.54,603.377 1218.5,604.5C 1218.71,605.086 1219.04,605.586 1219.5,606C 1217.78,607.559 1215.78,608.392 1213.5,608.5 Z"/></g>
<g><path style="opacity:0.996" fill="#00e78b" d="M 1120.5,514.5 C 1119.83,514.167 1119.17,513.833 1118.5,513.5C 1118.5,513.167 1118.5,512.833 1118.5,512.5C 1118.44,511.957 1118.11,511.624 1117.5,511.5C 1116.51,516.456 1116.17,521.456 1116.5,526.5C 1115.5,552.661 1115.17,578.995 1115.5,605.5C 1105.7,607.362 1095.7,608.029 1085.5,607.5C 1085.33,557.832 1085.5,508.166 1086,458.5C 1087.02,460.376 1087.85,462.376 1088.5,464.5C 1090.4,465.734 1092.06,465.401 1093.5,463.5C 1096.03,464.498 1096.03,465.331 1093.5,466C 1095.49,467.319 1096.65,469.152 1097,471.5C 1097.33,470.5 1097.67,469.5 1098,468.5C 1098.72,469.451 1099.55,469.617 1100.5,469C 1099.35,468.086 1099.51,467.253 1101,466.5C 1102.27,468.196 1102.1,470.029 1100.5,472C 1101.62,473.074 1102.62,474.24 1103.5,475.5C 1104.17,475.167 1104.83,474.833 1105.5,474.5C 1106.31,472.234 1106.81,469.9 1107,467.5C 1107.67,466.167 1108.33,466.167 1109,467.5C 1109.68,468.784 1109.52,469.951 1108.5,471C 1109.57,471.739 1110.24,472.739 1110.5,474C 1109.69,478.488 1110.52,478.655 1113,474.5C 1114.17,476 1115.33,477.5 1116.5,479C 1112.67,479.407 1112,480.74 1114.5,483C 1113.21,483.49 1111.87,483.657 1110.5,483.5C 1110.67,487.971 1111.51,488.304 1113,484.5C 1116.1,492.418 1117.1,492.085 1116,483.5C 1118.75,485.266 1119.59,487.599 1118.5,490.5C 1116.7,491.716 1115.03,492.716 1113.5,493.5C 1115.26,494.754 1116.76,494.421 1118,492.5C 1118.48,493.448 1118.65,494.448 1118.5,495.5C 1119.55,495.649 1120.55,495.483 1121.5,495C 1120.23,493.754 1119.89,492.587 1120.5,491.5C 1122.28,492.901 1123.94,494.401 1125.5,496C 1124.83,496.333 1124.17,496.667 1123.5,497C 1124.71,497.893 1124.71,498.726 1123.5,499.5C 1121.68,499.537 1119.68,499.204 1117.5,498.5C 1117.5,497.5 1117.5,496.5 1117.5,495.5C 1115.83,495.5 1114.17,495.5 1112.5,495.5C 1112.12,497.942 1112.79,498.609 1114.5,497.5C 1115.7,498.531 1117.03,499.365 1118.5,500C 1117.33,500.419 1116.33,501.085 1115.5,502C 1118.32,501.37 1120.98,502.036 1123.5,504C 1122.69,504.308 1122.03,504.808 1121.5,505.5C 1122.87,506.594 1124.03,506.26 1125,504.5C 1126.02,505.634 1126.68,505.301 1127,503.5C 1131.36,504.261 1131.52,505.428 1127.5,507C 1128.17,507.333 1128.83,507.667 1129.5,508C 1128.65,510.618 1128.65,512.951 1129.5,515C 1130.68,515.967 1132.01,516.467 1133.5,516.5C 1132.22,518.179 1131.22,520.013 1130.5,522C 1129.52,522.591 1128.85,522.257 1128.5,521C 1128.36,520.228 1128.02,519.561 1127.5,519C 1129.88,518.026 1129.54,517.359 1126.5,517C 1127.78,515.703 1127.62,514.536 1126,513.5C 1124.3,514.406 1122.47,514.739 1120.5,514.5 Z"/></g>
<g><path style="opacity:0.994" fill="#00e38a" d="M 860.5,456.5 C 860.783,457.289 861.283,457.956 862,458.5C 862.5,508.166 862.667,557.832 862.5,607.5C 861.711,607.783 861.044,608.283 860.5,609C 855.667,609.167 850.833,609.333 846,609.5C 840.75,609.47 835.75,608.804 831,607.5C 830.333,557.5 830.333,507.5 831,457.5C 840.75,456.514 850.584,456.181 860.5,456.5 Z"/></g>
<g><path style="opacity:0.957" fill="#00b877" d="M 1119.5,465.5 C 1122.9,468.627 1125.56,472.293 1127.5,476.5C 1122.65,474.48 1119.98,470.814 1119.5,465.5 Z"/></g>
<g><path style="opacity:0.991" fill="#00e389" d="M 635.5,528.5 C 635.5,528.833 635.5,529.167 635.5,529.5C 636.874,531.858 638.207,534.192 639.5,536.5C 640.01,541.814 638.51,546.48 635,550.5C 616.938,568.729 598.772,586.729 580.5,604.5C 574.56,604.879 568.893,603.879 563.5,601.5C 561.615,599.947 560.615,597.947 560.5,595.5C 560.338,593.473 560.505,591.473 561,589.5C 563.561,584.436 566.728,579.769 570.5,575.5C 575.833,572.167 580.167,567.833 583.5,562.5C 584.5,560.833 585.833,559.5 587.5,558.5C 591.211,556.789 593.878,554.123 595.5,550.5C 598.462,547.036 601.629,543.703 605,540.5C 605.667,539.5 605.667,538.5 605,537.5C 595.576,528.245 586.41,518.911 577.5,509.5C 575.833,507.5 574.666,505.166 574,502.5C 571.372,500.874 569.039,498.874 567,496.5C 566.885,491.787 565.719,487.454 563.5,483.5C 567.918,474.639 574.585,472.472 583.5,477C 600.701,494.368 618.035,511.535 635.5,528.5 Z"/></g>
<g><path style="opacity:0.625" fill="#001010" d="M 884.5,487.5 C 898.167,487.5 911.833,487.5 925.5,487.5C 925.168,527.67 925.501,567.67 926.5,607.5C 927.5,607.833 928.167,608.5 928.5,609.5C 927.036,608.595 925.702,608.595 924.5,609.5C 922.966,606.542 921.966,603.375 921.5,600C 922.296,568.806 922.296,537.473 921.5,506C 920.272,505.221 919.272,504.221 918.5,503C 921.385,498.191 920.885,494.025 917,490.5C 912.667,490.5 908.333,490.5 904,490.5C 902.561,492.014 901.061,492.347 899.5,491.5C 895.683,492.202 891.85,492.869 888,493.5C 884.619,492.17 881.785,493.003 879.5,496C 879.833,496.333 880.167,496.667 880.5,497C 878.368,497.918 877.701,499.251 878.5,501C 877.333,502.833 876.167,504.667 875,506.5C 874.966,510.547 873.799,514.547 871.5,518.5C 871.709,519.086 872.043,519.586 872.5,520C 871.726,523.772 871.06,527.605 870.5,531.5C 871.367,543.214 871.034,555.047 869.5,567C 869.648,578.489 869.648,589.822 869.5,601C 868.792,603.589 867.459,605.755 865.5,607.5C 864.501,596.854 864.168,586.187 864.5,575.5C 865.29,576.609 865.79,577.942 866,579.5C 867.409,573.628 867.576,567.794 866.5,562C 868.007,560.527 868.674,558.693 868.5,556.5C 869.031,543.382 869.031,530.548 868.5,518C 870.025,515.397 871.025,512.897 871.5,510.5C 871.291,509.914 870.957,509.414 870.5,509C 873.974,505.051 874.974,500.884 873.5,496.5C 874.432,494.205 875.265,491.871 876,489.5C 876.893,488.919 877.893,488.585 879,488.5C 887.18,490.305 895.346,490.472 903.5,489C 896.415,488.851 890.081,488.351 884.5,487.5 Z"/></g>
<g><path style="opacity:0.384" fill="#02120f" d="M 635.5,528.5 C 618.035,511.535 600.701,494.368 583.5,477C 574.585,472.472 567.918,474.639 563.5,483.5C 560.964,487.745 561.13,492.078 564,496.5C 567.709,501.71 572.209,506.043 577.5,509.5C 586.41,518.911 595.576,528.245 605,537.5C 605.667,538.5 605.667,539.5 605,540.5C 601.629,543.703 598.462,547.036 595.5,550.5C 592.5,552.833 589.833,555.5 587.5,558.5C 585.833,559.5 584.5,560.833 583.5,562.5C 578.833,566.5 574.5,570.833 570.5,575.5C 562.76,580.311 559.426,586.978 560.5,595.5C 560.615,597.947 561.615,599.947 563.5,601.5C 568.338,606.929 574.004,607.929 580.5,604.5C 598.772,586.729 616.938,568.729 635,550.5C 638.51,546.48 640.01,541.814 639.5,536.5C 639.5,536.167 639.5,535.833 639.5,535.5C 640.059,539.034 641.059,542.534 642.5,546C 640.578,547.46 639.911,549.127 640.5,551C 629.946,561.888 619.113,572.388 608,582.5C 607.517,583.448 607.351,584.448 607.5,585.5C 605.319,585.284 603.653,586.117 602.5,588C 602.833,588.333 603.167,588.667 603.5,589C 597.531,593.967 591.865,599.301 586.5,605C 572.689,612.366 562.023,609.7 554.5,597C 555.833,594.667 555.833,592.333 554.5,590C 565.797,574.194 579.131,560.027 594.5,547.5C 596.957,545.557 598.29,543.057 598.5,540C 597.965,538.128 597.965,536.462 598.5,535C 587.725,525.561 578.392,516.228 570.5,507C 567.322,504.486 564.156,501.986 561,499.5C 557.95,500.887 555.95,503.22 555,506.5C 546.63,534.355 538.797,562.022 531.5,589.5C 529.193,596.92 527.193,604.42 525.5,612C 523.469,624.993 515.636,631.16 502,630.5C 493.635,631.402 487.469,628.235 483.5,621C 484.954,617.507 484.621,614.174 482.5,611C 473.148,613.125 464.814,611.125 457.5,605C 440.701,589.198 424.368,573.198 408.5,557C 409.337,555.989 409.67,554.822 409.5,553.5C 404.296,553.748 400.796,551.081 399,545.5C 398.333,542.167 398.333,538.833 399,535.5C 399.39,533.578 400.39,531.578 402,529.5C 424.11,507.39 445.943,485.557 467.5,464C 470.554,462.594 473.554,461.094 476.5,459.5C 478.538,460.634 480.538,460.634 482.5,459.5C 484.111,461.535 485.944,462.202 488,461.5C 489.655,464.153 491.655,466.486 494,468.5C 497.636,475.038 497.136,481.204 492.5,487C 492.833,487.333 493.167,487.667 493.5,488C 489,491.167 485.167,495 482,499.5C 481.667,499.167 481.333,498.833 481,498.5C 470.28,510.554 458.613,522.221 446,533.5C 444.97,535.588 444.137,537.755 443.5,540C 456.424,554.927 470.091,569.26 484.5,583C 487.543,583.798 490.376,584.965 493,586.5C 494.333,583.833 495.667,581.167 497,578.5C 497.72,576.888 497.554,575.388 496.5,574C 497.257,572.488 498.257,571.154 499.5,570C 499.255,567.911 499.255,565.911 499.5,564C 501.838,560.959 503.505,557.959 504.5,555C 502.446,553.318 502.779,551.651 505.5,550C 504.273,548.413 504.606,547.079 506.5,546C 506.167,545.667 505.833,545.333 505.5,545C 507.622,540.172 509.288,535.506 510.5,531C 509.974,528.27 510.974,525.603 513.5,523C 512.833,522 512.167,521 511.5,520C 514.915,518.857 515.249,517.19 512.5,515C 514.679,514.558 515.345,513.558 514.5,512C 516.464,509.482 517.13,506.816 516.5,504C 517.93,501.818 519.43,499.651 521,497.5C 520.111,494.624 520.944,492.124 523.5,490C 523.516,487.651 523.516,485.318 523.5,483C 525.557,479.239 527.223,475.239 528.5,471C 527.397,469.32 527.73,467.82 529.5,466.5C 528.917,464.452 528.917,462.619 529.5,461C 531.46,457.215 534.127,453.882 537.5,451C 541.273,449.646 544.94,448.146 548.5,446.5C 550.5,447.833 552.5,447.833 554.5,446.5C 556.362,448.737 558.529,449.403 561,448.5C 563.256,451.306 565.256,454.306 567,457.5C 568.172,461.596 568.839,465.596 569,469.5C 569.667,470.833 570.333,470.833 571,469.5C 571.333,470.5 571.667,471.5 572,472.5C 574.074,469.957 576.241,469.957 578.5,472.5C 581.304,472.001 583.804,473.001 586,475.5C 595.393,483.414 603.893,492.081 611.5,501.5C 615.485,504.984 619.318,508.651 623,512.5C 623.333,512.167 623.667,511.833 624,511.5C 628.167,516.333 632.333,521.167 636.5,526C 635.748,526.671 635.414,527.504 635.5,528.5 Z M 557.5,510.5 C 558.118,520.832 558.284,531.165 558,541.5C 557.667,542.167 557.333,542.833 557,543.5C 555.775,536.245 555.108,528.911 555,521.5C 553.883,522.949 553.216,524.616 553,526.5C 552.174,533.596 552.674,540.596 554.5,547.5C 553.726,551.465 553.393,555.465 553.5,559.5C 552.5,559.5 551.5,559.5 550.5,559.5C 550.666,552.159 550.5,544.826 550,537.5C 546.873,546.609 546.706,555.776 549.5,565C 548.394,572.695 549.227,580.195 552,587.5C 553.075,582.793 553.741,578.126 554,573.5C 557.209,575.981 558.043,575.147 556.5,571C 557.218,567.539 557.718,564.039 558,560.5C 559.356,559.62 560.856,559.286 562.5,559.5C 562.216,556.223 562.549,553.057 563.5,550C 566.482,549.502 569.482,549.335 572.5,549.5C 571.599,545.759 572.932,543.759 576.5,543.5C 576.338,541.473 576.505,539.473 577,537.5C 578.333,536.167 579.667,536.167 581,537.5C 581.334,535.153 581.167,532.819 580.5,530.5C 579.167,530.5 577.833,530.5 576.5,530.5C 576.5,529.5 576.5,528.5 576.5,527.5C 574.833,527.5 573.167,527.5 571.5,527.5C 571.5,526.5 571.5,525.5 571.5,524.5C 569.833,524.5 568.167,524.5 566.5,524.5C 566.5,523.167 566.5,521.833 566.5,520.5C 563.671,520.325 562.004,521.658 561.5,524.5C 560.805,519.401 559.471,514.735 557.5,510.5 Z M 475.5,517.5 C 474.625,515.432 473.459,513.432 472,511.5C 472.083,514.362 471.916,517.362 471.5,520.5C 472.822,520.33 473.989,520.663 475,521.5C 475.49,520.207 475.657,518.873 475.5,517.5 Z M 579.5,525.5 C 579.369,526.239 579.536,526.906 580,527.5C 582.168,526.178 582.001,525.511 579.5,525.5 Z M 453.5,533.5 C 450.86,535.465 450.86,537.465 453.5,539.5C 454.793,537.364 454.793,535.364 453.5,533.5 Z M 498.5,537.5 C 498.334,543.176 498.501,548.843 499,554.5C 502.294,548.63 502.127,542.964 498.5,537.5 Z M 457.5,547.5 C 456.086,549.598 456.752,550.598 459.5,550.5C 459.715,548.821 459.048,547.821 457.5,547.5 Z M 462.5,552.5 C 461.105,553.648 461.272,554.648 463,555.5C 463.74,554.251 463.573,553.251 462.5,552.5 Z"/></g>
<g><path style="opacity:0.992" fill="#00e58a" d="M 479.5,494.5 C 476.14,497.86 472.806,501.194 469.5,504.5C 466.05,503.756 464.384,505.09 464.5,508.5C 463.5,508.5 462.5,508.5 461.5,508.5C 461.5,509.5 461.5,510.5 461.5,511.5C 460.5,511.5 459.5,511.5 458.5,511.5C 458.5,512.5 458.5,513.5 458.5,514.5C 457.5,514.5 456.5,514.5 455.5,514.5C 455.5,515.833 455.5,517.167 455.5,518.5C 452.473,522.194 449.14,525.527 445.5,528.5C 442.718,528.583 440.385,527.75 438.5,526C 438.957,525.586 439.291,525.086 439.5,524.5C 438.194,523.088 437.36,521.421 437,519.5C 436.583,520.756 435.75,521.423 434.5,521.5C 433.426,520.115 432.093,518.949 430.5,518C 432.304,516.458 433.971,514.791 435.5,513C 435.167,512.667 434.833,512.333 434.5,512C 435.793,511.51 437.127,511.343 438.5,511.5C 438.186,506.757 439.519,506.424 442.5,510.5C 444.497,510.014 445.831,508.847 446.5,507C 444.459,504.211 442.792,501.211 441.5,498C 443.053,496.903 444.386,495.57 445.5,494C 445.167,493.667 444.833,493.333 444.5,493C 445.766,492.691 446.933,492.191 448,491.5C 448.741,492.641 449.575,492.641 450.5,491.5C 451.333,492.5 452.167,493.5 453,494.5C 453.461,491.909 452.628,489.743 450.5,488C 451.593,486.635 452.926,486.301 454.5,487C 457.329,491.943 459.829,492.11 462,487.5C 463.824,488.749 463.657,489.915 461.5,491C 461.424,494.001 462.591,494.167 465,491.5C 465.333,491.833 465.667,492.167 466,492.5C 466.333,491.167 466.667,489.833 467,488.5C 468.458,489.747 469.958,489.747 471.5,488.5C 473.547,490.015 475.881,490.849 478.5,491C 479.337,492.011 479.67,493.178 479.5,494.5 Z"/></g>
<g><path style="opacity:0.988" fill="#02452e" d="M 555.5,488.5 C 555.277,492.162 554.277,495.495 552.5,498.5C 552.723,494.838 553.723,491.505 555.5,488.5 Z"/></g>
<g><path style="opacity:0.871" fill="#009964" d="M 527.5,486.5 C 527.59,489.152 526.924,491.485 525.5,493.5C 525.41,490.848 526.076,488.515 527.5,486.5 Z"/></g>
<g><path style="opacity:0.992" fill="#00e58a" d="M 557.5,452.5 C 559.371,452.859 560.871,453.859 562,455.5C 562.498,458.482 562.665,461.482 562.5,464.5C 560.39,468.502 559.057,472.835 558.5,477.5C 557.076,479.515 556.41,481.848 556.5,484.5C 555.566,485.568 555.232,486.901 555.5,488.5C 553.723,491.505 552.723,494.838 552.5,498.5C 551.076,500.515 550.41,502.848 550.5,505.5C 549.89,506.391 549.557,507.391 549.5,508.5C 548.076,510.515 547.41,512.848 547.5,515.5C 546.566,516.568 546.232,517.901 546.5,519.5C 544.723,522.505 543.723,525.838 543.5,529.5C 541.723,532.505 540.723,535.838 540.5,539.5C 539.681,541.772 539.015,544.106 538.5,546.5C 537.076,548.515 536.41,550.848 536.5,553.5C 534.723,556.505 533.723,559.838 533.5,563.5C 532.076,565.515 531.41,567.848 531.5,570.5C 530.076,572.515 529.41,574.848 529.5,577.5C 528.076,579.515 527.41,581.848 527.5,584.5C 525.723,587.505 524.723,590.838 524.5,594.5C 523.061,596.588 522.394,598.921 522.5,601.5C 520.723,604.505 519.723,607.838 519.5,611.5C 518.054,614.254 517.054,617.254 516.5,620.5C 515.139,623.194 513.139,625.194 510.5,626.5C 504.441,626.746 498.441,626.413 492.5,625.5C 491.21,624.942 490.377,623.942 490,622.5C 489.195,619.304 489.362,616.304 490.5,613.5C 491.924,611.485 492.59,609.152 492.5,606.5C 493.924,604.485 494.59,602.152 494.5,599.5C 496.277,596.495 497.277,593.162 497.5,589.5C 498.924,587.485 499.59,585.152 499.5,582.5C 500.924,580.485 501.59,578.152 501.5,575.5C 502.924,573.485 503.59,571.152 503.5,568.5C 505.277,565.495 506.277,562.162 506.5,558.5C 508.277,555.495 509.277,552.162 509.5,548.5C 510.924,546.485 511.59,544.152 511.5,541.5C 512.924,539.485 513.59,537.152 513.5,534.5C 514.924,532.485 515.59,530.152 515.5,527.5C 516.924,525.485 517.59,523.152 517.5,520.5C 519.277,517.495 520.277,514.162 520.5,510.5C 522.277,507.495 523.277,504.162 523.5,500.5C 524.924,498.485 525.59,496.152 525.5,493.5C 526.924,491.485 527.59,489.152 527.5,486.5C 529.277,483.495 530.277,480.162 530.5,476.5C 531.924,474.485 532.59,472.152 532.5,469.5C 534.277,466.495 535.277,463.162 535.5,459.5C 535.273,457.067 536.273,455.401 538.5,454.5C 544.588,452.635 550.922,451.969 557.5,452.5 Z"/></g>
<g><path style="opacity:0.984" fill="#004d33" d="M 558.5,477.5 C 558.59,480.152 557.924,482.485 556.5,484.5C 556.41,481.848 557.076,479.515 558.5,477.5 Z"/></g>
<g><path style="opacity:0.882" fill="#019663" d="M 530.5,476.5 C 530.277,480.162 529.277,483.495 527.5,486.5C 527.723,482.838 528.723,479.505 530.5,476.5 Z"/></g>
<g><path style="opacity:0.933" fill="#02442d" d="M 562.5,464.5 C 561.943,469.165 560.61,473.498 558.5,477.5C 559.057,472.835 560.39,468.502 562.5,464.5 Z"/></g>
<g><path style="opacity:0.004" fill="#000000" d="M 508.5,473.5 C 509.622,475.288 509.789,477.288 509,479.5C 508.505,477.527 508.338,475.527 508.5,473.5 Z"/></g>
<g><path style="opacity:0.871" fill="#009763" d="M 532.5,469.5 C 532.59,472.152 531.924,474.485 530.5,476.5C 530.41,473.848 531.076,471.515 532.5,469.5 Z"/></g>
<g><path style="opacity:0.006" fill="#000000" d="M 503.5,466.5 C 505.425,471.219 506.425,476.385 506.5,482C 507.24,485.659 505.907,487.826 502.5,488.5C 502.203,481.08 502.536,473.746 503.5,466.5 Z"/></g>
<g><path style="opacity:0.9" fill="#01be7e" d="M 483.5,465.5 C 478.341,465.182 473.341,465.848 468.5,467.5C 469.343,465.827 470.676,464.66 472.5,464C 475.5,463.333 478.5,463.333 481.5,464C 482.416,464.278 483.082,464.778 483.5,465.5 Z"/></g>
<g><path style="opacity:0.878" fill="#00915f" d="M 535.5,459.5 C 535.277,463.162 534.277,466.495 532.5,469.5C 532.723,465.838 533.723,462.505 535.5,459.5 Z"/></g>
<g><path style="opacity:0.909" fill="#00ac74" d="M 557.5,452.5 C 550.922,451.969 544.588,452.635 538.5,454.5C 538.953,453.542 539.619,452.708 540.5,452C 546.349,451.182 552.015,451.348 557.5,452.5 Z"/></g>
<g><path style="opacity:0.863" fill="#009c68" d="M 525.5,493.5 C 525.59,496.152 524.924,498.485 523.5,500.5C 523.41,497.848 524.076,495.515 525.5,493.5 Z"/></g>
<g><path style="opacity:0.992" fill="#00e189" d="M 483.5,465.5 C 488.682,467.525 491.348,471.358 491.5,477C 490.116,484.563 486.116,490.397 479.5,494.5C 479.67,493.178 479.337,492.011 478.5,491C 475.881,490.849 473.547,490.015 471.5,488.5C 469.958,489.747 468.458,489.747 467,488.5C 466.667,489.833 466.333,491.167 466,492.5C 465.667,492.167 465.333,491.833 465,491.5C 462.591,494.167 461.424,494.001 461.5,491C 463.657,489.915 463.824,488.749 462,487.5C 459.829,492.11 457.329,491.943 454.5,487C 452.926,486.301 451.593,486.635 450.5,488C 452.628,489.743 453.461,491.909 453,494.5C 452.167,493.5 451.333,492.5 450.5,491.5C 449.575,492.641 448.741,492.641 448,491.5C 446.933,492.191 445.766,492.691 444.5,493C 444.833,493.333 445.167,493.667 445.5,494C 444.386,495.57 443.053,496.903 441.5,498C 442.792,501.211 444.459,504.211 446.5,507C 445.831,508.847 444.497,510.014 442.5,510.5C 439.519,506.424 438.186,506.757 438.5,511.5C 437.127,511.343 435.793,511.51 434.5,512C 434.833,512.333 435.167,512.667 435.5,513C 433.971,514.791 432.304,516.458 430.5,518C 432.093,518.949 433.426,520.115 434.5,521.5C 432.83,521.249 431.33,520.582 430,519.5C 428.615,520.551 427.615,521.884 427,523.5C 426.259,522.359 425.425,522.359 424.5,523.5C 422.167,525.833 419.833,528.167 417.5,530.5C 416.548,528.955 416.215,527.288 416.5,525.5C 415.167,525.5 413.833,525.5 412.5,525.5C 414.61,524.05 415.943,522.05 416.5,519.5C 433.5,501.833 450.833,484.5 468.5,467.5C 473.341,465.848 478.341,465.182 483.5,465.5 Z"/></g>
<g><path style="opacity:0.824" fill="#01422c" d="M 552.5,498.5 C 552.59,501.152 551.924,503.485 550.5,505.5C 550.41,502.848 551.076,500.515 552.5,498.5 Z"/></g>
<g><path style="opacity:0.945" fill="#00c079" d="M 563.5,483.5 C 565.719,487.454 566.885,491.787 567,496.5C 569.039,498.874 571.372,500.874 574,502.5C 574.666,505.166 575.833,507.5 577.5,509.5C 572.209,506.043 567.709,501.71 564,496.5C 561.13,492.078 560.964,487.745 563.5,483.5 Z"/></g>
<g><path style="opacity:0.886" fill="#009a65" d="M 523.5,500.5 C 523.277,504.162 522.277,507.495 520.5,510.5C 520.723,506.838 521.723,503.505 523.5,500.5 Z"/></g>
<g><path style="opacity:0.933" fill="#004e31" d="M 884.5,487.5 C 884.5,487.167 884.5,486.833 884.5,486.5C 898.5,486.5 912.5,486.5 926.5,486.5C 926.5,526.833 926.5,567.167 926.5,607.5C 925.501,567.67 925.168,527.67 925.5,487.5C 911.833,487.5 898.167,487.5 884.5,487.5 Z"/></g>
<g><path style="opacity:0.006" fill="#000000" d="M 627.5,510.5 C 627.387,505.214 628.72,504.547 631.5,508.5C 630.68,510.111 629.346,510.778 627.5,510.5 Z"/></g>
<g><path style="opacity:0.967" fill="#00bc78" d="M 469.5,504.5 C 465.167,509.5 460.5,514.167 455.5,518.5C 455.5,517.167 455.5,515.833 455.5,514.5C 456.5,514.5 457.5,514.5 458.5,514.5C 458.5,513.5 458.5,512.5 458.5,511.5C 459.5,511.5 460.5,511.5 461.5,511.5C 461.5,510.5 461.5,509.5 461.5,508.5C 462.5,508.5 463.5,508.5 464.5,508.5C 464.384,505.09 466.05,503.756 469.5,504.5 Z"/></g>
<g><path style="opacity:0.753" fill="#01482f" d="M 549.5,508.5 C 549.59,511.152 548.924,513.485 547.5,515.5C 547.41,512.848 548.076,510.515 549.5,508.5 Z"/></g>
<g><path style="opacity:0.894" fill="#009060" d="M 520.5,510.5 C 520.277,514.162 519.277,517.495 517.5,520.5C 517.723,516.838 518.723,513.505 520.5,510.5 Z"/></g>
<g><path style="opacity:0.914" fill="#01bd7a" d="M 737.5,511.5 C 739.9,513.296 741.567,515.63 742.5,518.5C 741.292,517.766 739.959,517.433 738.5,517.5C 738.483,515.435 738.15,513.435 737.5,511.5 Z"/></g>
<g><path style="opacity:0.996" fill="#00e68b" d="M 434.5,521.5 C 434.918,522.222 435.584,522.722 436.5,523C 434.992,524.507 433.659,526.173 432.5,528C 433.258,529.364 432.758,530.531 431,531.5C 430.667,530.833 430.333,530.167 430,529.5C 428.167,530.667 426.667,532.167 425.5,534C 426.939,534.991 427.939,536.324 428.5,538C 427.228,540.044 427.561,541.878 429.5,543.5C 430.194,540.403 431.194,540.069 432.5,542.5C 432.587,544.963 432.587,547.463 432.5,550C 433.025,550.692 433.692,551.192 434.5,551.5C 435.731,550.349 435.731,549.183 434.5,548C 435.025,547.308 435.692,546.808 436.5,546.5C 438.419,549.124 440.753,551.291 443.5,553C 442.343,554.986 441.009,556.82 439.5,558.5C 439.703,560.208 440.536,561.541 442,562.5C 442.651,564.235 442.485,565.902 441.5,567.5C 442.167,568.5 442.833,569.5 443.5,570.5C 442.234,571.724 441.067,573.057 440,574.5C 439.316,575.784 439.483,576.951 440.5,578C 439.552,578.483 438.552,578.649 437.5,578.5C 438.118,575.193 438.118,571.693 437.5,568C 436.668,567.312 436.002,567.479 435.5,568.5C 436.167,569.5 436.833,570.5 437.5,571.5C 435.09,573.768 432.423,574.101 429.5,572.5C 422.833,566.167 416.167,559.833 409.5,553.5C 406.69,551.026 404.69,548.026 403.5,544.5C 403.336,541.813 403.503,539.146 404,536.5C 405.845,534.133 407.011,531.467 407.5,528.5C 409.411,527.925 411.078,526.925 412.5,525.5C 413.833,525.5 415.167,525.5 416.5,525.5C 416.215,527.288 416.548,528.955 417.5,530.5C 419.833,528.167 422.167,525.833 424.5,523.5C 425.425,522.359 426.259,522.359 427,523.5C 427.615,521.884 428.615,520.551 430,519.5C 431.33,520.582 432.83,521.249 434.5,521.5 Z"/></g>
<g><path style="opacity:0.924" fill="#00613d" d="M 1184.5,457.5 C 1184.22,458.289 1183.72,458.956 1183,459.5C 1182.83,491.172 1182.33,522.839 1181.5,554.5C 1180.7,554.043 1180.37,553.376 1180.5,552.5C 1181.5,521.671 1181.83,490.671 1181.5,459.5C 1181.97,458.094 1182.97,457.427 1184.5,457.5 Z"/></g>
<g><path style="opacity:0.849" fill="#002d20" d="M 769.5,459.5 C 769.667,491.502 769.5,523.502 769,555.5C 767.961,554.756 767.461,553.756 767.5,552.5C 768.167,521.5 768.833,490.5 769.5,459.5 Z"/></g>
<g><path style="opacity:0.722" fill="#033d28" d="M 546.5,519.5 C 546.277,523.162 545.277,526.495 543.5,529.5C 543.723,525.838 544.723,522.505 546.5,519.5 Z"/></g>
<g><path style="opacity:0.837" fill="#00492d" d="M 703.5,512.5 C 702.833,543.833 702.167,575.167 701.5,606.5C 701.333,574.498 701.5,542.498 702,510.5C 702.717,511.044 703.217,511.711 703.5,512.5 Z"/></g>
<g><path style="opacity:0.875" fill="#009361" d="M 517.5,520.5 C 517.59,523.152 516.924,525.485 515.5,527.5C 515.41,524.848 516.076,522.515 517.5,520.5 Z"/></g>
<g><path style="opacity:0.006" fill="#000000" d="M 647.5,524.5 C 648.75,524.577 649.583,525.244 650,526.5C 650.881,531.808 650.381,536.975 648.5,542C 650.784,546.729 650.951,551.562 649,556.5C 647.956,555.377 647.29,554.044 647,552.5C 646.195,543.089 646.362,533.756 647.5,524.5 Z"/></g>
<g><path style="opacity:0.945" fill="#00cf84" d="M 1213.5,524.5 C 1214.13,552.657 1213.46,580.657 1211.5,608.5C 1203.02,609.493 1194.35,609.826 1185.5,609.5C 1183.43,605.692 1181.09,602.026 1178.5,598.5C 1180.47,600.152 1182.8,601.319 1185.5,602C 1184.52,603.779 1184.85,605.445 1186.5,607C 1193.83,607.667 1201.17,607.667 1208.5,607C 1209.5,606.5 1210.5,606 1211.5,605.5C 1212.17,578.336 1212.83,551.336 1213.5,524.5 Z"/></g>
<g><path style="opacity:0.89" fill="#00a56f" d="M 416.5,519.5 C 415.943,522.05 414.61,524.05 412.5,525.5C 411.078,526.925 409.411,527.925 407.5,528.5C 410.167,525.167 413.167,522.167 416.5,519.5 Z"/></g>
<g><path style="opacity:0.007" fill="#000000" d="M 389.5,527.5 C 390.586,527.62 391.253,528.287 391.5,529.5C 392.983,537.251 392.65,544.917 390.5,552.5C 389.749,551.624 389.249,550.624 389,549.5C 388.204,542.087 388.37,534.754 389.5,527.5 Z"/></g>
<g><path style="opacity:0.955" fill="#00b774" d="M 1154.5,515.5 C 1159.23,520.632 1163.23,526.299 1166.5,532.5C 1165.03,531.26 1163.36,530.26 1161.5,529.5C 1158.33,525.309 1156,520.643 1154.5,515.5 Z"/></g>
<g><path style="opacity:0.004" fill="#000000" d="M 659.5,528.5 C 660.65,533.316 660.816,538.316 660,543.5C 659.501,538.511 659.334,533.511 659.5,528.5 Z"/></g>
<g><path style="opacity:0.957" fill="#00d188" d="M 1053.5,457.5 C 1054.12,457.611 1054.62,457.944 1055,458.5C 1055.67,508.167 1055.67,557.833 1055,607.5C 1054.5,608 1054,608.5 1053.5,609C 1048.67,609.167 1043.83,609.333 1039,609.5C 1033.78,609.494 1028.95,608.827 1024.5,607.5C 1023.84,557.489 1024.5,507.822 1026.5,458.5C 1035.32,457.507 1044.32,457.173 1053.5,457.5 Z"/></g>
<g><path style="opacity:0.996" fill="#00e78b" d="M 1026.5,458.5 C 1035.5,458.5 1044.5,458.5 1053.5,458.5C 1053.5,507.833 1053.5,557.167 1053.5,606.5C 1044.62,607.732 1035.78,607.732 1027,606.5C 1025.86,581.034 1025.36,555.534 1025.5,530C 1025.5,506.095 1025.84,482.262 1026.5,458.5 Z"/></g>
<g><path style="opacity:0.871" fill="#009663" d="M 515.5,527.5 C 515.59,530.152 514.924,532.485 513.5,534.5C 513.41,531.848 514.076,529.515 515.5,527.5 Z"/></g>
<g><path style="opacity:0.71" fill="#01442d" d="M 543.5,529.5 C 543.277,533.162 542.277,536.495 540.5,539.5C 540.723,535.838 541.723,532.505 543.5,529.5 Z"/></g>
<g><path style="opacity:0.82" fill="#008351" d="M 697.5,457.5 C 689.16,457.334 680.827,457.5 672.5,458C 672,458.5 671.5,459 671,459.5C 670.5,508.832 670.333,558.166 670.5,607.5C 669.335,558.002 669.168,508.335 670,458.5C 670.5,458 671,457.5 671.5,457C 680.343,456.176 689.01,456.343 697.5,457.5 Z"/></g>
<g><path style="opacity:0.896" fill="#00b877" d="M 407.5,528.5 C 407.011,531.467 405.845,534.133 404,536.5C 403.503,539.146 403.336,541.813 403.5,544.5C 402.357,541.024 402.19,537.358 403,533.5C 404.049,531.382 405.549,529.716 407.5,528.5 Z"/></g>
<g><path style="opacity:0.62" fill="#00734b" d="M 635.5,529.5 C 638.044,530.708 639.378,532.708 639.5,535.5C 639.5,535.833 639.5,536.167 639.5,536.5C 638.207,534.192 636.874,531.858 635.5,529.5 Z"/></g>
<g><path style="opacity:0.855" fill="#008d5e" d="M 1212.5,457.5 C 1213.12,457.611 1213.62,457.944 1214,458.5C 1214.83,508.571 1214.66,558.571 1213.5,608.5C 1212.83,608.5 1212.17,608.5 1211.5,608.5C 1213.46,580.657 1214.13,552.657 1213.5,524.5C 1213.81,502.121 1213.48,479.788 1212.5,457.5 Z"/></g>
<g><path style="opacity:0.004" fill="#000000" d="M 385.5,537.5 C 386.622,539.288 386.789,541.288 386,543.5C 385.505,541.527 385.338,539.527 385.5,537.5 Z"/></g>
<g><path style="opacity:0.882" fill="#009d67" d="M 513.5,534.5 C 513.59,537.152 512.924,539.485 511.5,541.5C 511.41,538.848 512.076,536.515 513.5,534.5 Z"/></g>
<g><path style="opacity:0.903" fill="#00af76" d="M 1053.5,457.5 C 1044.32,457.173 1035.32,457.507 1026.5,458.5C 1024.5,507.822 1023.84,557.489 1024.5,607.5C 1023.17,557.665 1023.17,507.665 1024.5,457.5C 1034.29,456.181 1043.96,456.181 1053.5,457.5 Z"/></g>
<g><path style="opacity:0.863" fill="#009c66" d="M 511.5,541.5 C 511.59,544.152 510.924,546.485 509.5,548.5C 509.41,545.848 510.076,543.515 511.5,541.5 Z"/></g>
<g><path style="opacity:0.677" fill="#061a15" d="M 724.5,543.5 C 739.833,564.5 755.167,585.5 770.5,606.5C 770.833,607.167 771.167,607.833 771.5,608.5C 769.139,607.1 766.805,606.1 764.5,605.5C 749.975,586.977 736.641,567.644 724.5,547.5C 725.363,546.274 725.363,544.94 724.5,543.5 Z"/></g>
<g><path style="opacity:0.776" fill="#00482e" d="M 538.5,546.5 C 538.59,549.152 537.924,551.485 536.5,553.5C 536.41,550.848 537.076,548.515 538.5,546.5 Z"/></g>
<g><path style="opacity:0.859" fill="#009b66" d="M 509.5,548.5 C 509.277,552.162 508.277,555.495 506.5,558.5C 506.723,554.838 507.723,551.505 509.5,548.5 Z"/></g>
<g><path style="opacity:0.991" fill="#00e189" d="M 445.5,528.5 C 442.51,531.991 439.343,535.324 436,538.5C 435.333,539.167 435.333,539.833 436,540.5C 447.369,551.702 458.535,563.035 469.5,574.5C 467.533,574.261 465.699,574.594 464,575.5C 464.086,577.641 463.919,579.974 463.5,582.5C 461.179,581.375 458.846,581.208 456.5,582C 453.5,580.027 452,577.194 452,573.5C 451.667,574.5 451.333,575.5 451,576.5C 450.647,574.926 449.98,573.259 449,571.5C 447.251,572.299 445.918,571.632 445,569.5C 444.527,572.244 445.36,574.578 447.5,576.5C 447.291,577.086 446.957,577.586 446.5,578C 447.574,578.739 448.241,579.739 448.5,581C 446.888,582.482 445.888,584.315 445.5,586.5C 446.822,586.33 447.989,586.663 449,587.5C 449.815,585.377 450.815,583.377 452,581.5C 452.402,582.872 452.902,584.205 453.5,585.5C 452.438,586.77 451.438,587.937 450.5,589C 451.191,590.067 451.691,591.234 452,592.5C 455.384,589.731 456.551,590.398 455.5,594.5C 456.821,596.332 457.821,598.332 458.5,600.5C 448.199,591.867 438.533,582.533 429.5,572.5C 432.423,574.101 435.09,573.768 437.5,571.5C 436.833,570.5 436.167,569.5 435.5,568.5C 436.002,567.479 436.668,567.312 437.5,568C 438.118,571.693 438.118,575.193 437.5,578.5C 438.552,578.649 439.552,578.483 440.5,578C 439.483,576.951 439.316,575.784 440,574.5C 441.067,573.057 442.234,571.724 443.5,570.5C 442.833,569.5 442.167,568.5 441.5,567.5C 442.485,565.902 442.651,564.235 442,562.5C 440.536,561.541 439.703,560.208 439.5,558.5C 441.009,556.82 442.343,554.986 443.5,553C 440.753,551.291 438.419,549.124 436.5,546.5C 435.692,546.808 435.025,547.308 434.5,548C 435.731,549.183 435.731,550.349 434.5,551.5C 433.692,551.192 433.025,550.692 432.5,550C 432.587,547.463 432.587,544.963 432.5,542.5C 431.194,540.069 430.194,540.403 429.5,543.5C 427.561,541.878 427.228,540.044 428.5,538C 427.939,536.324 426.939,534.991 425.5,534C 426.667,532.167 428.167,530.667 430,529.5C 430.333,530.167 430.667,530.833 431,531.5C 432.758,530.531 433.258,529.364 432.5,528C 433.659,526.173 434.992,524.507 436.5,523C 435.584,522.722 434.918,522.222 434.5,521.5C 435.75,521.423 436.583,520.756 437,519.5C 437.36,521.421 438.194,523.088 439.5,524.5C 439.291,525.086 438.957,525.586 438.5,526C 440.385,527.75 442.718,528.583 445.5,528.5 Z"/></g>
<g><path style="opacity:0.416" fill="#051713" d="M 1118.5,513.5 C 1119.17,513.833 1119.83,514.167 1120.5,514.5C 1133.78,534.448 1147.45,554.114 1161.5,573.5C 1166.81,582.13 1172.48,590.464 1178.5,598.5C 1181.09,602.026 1183.43,605.692 1185.5,609.5C 1184.58,610.303 1183.58,610.47 1182.5,610C 1178.96,606.799 1175.8,603.299 1173,599.5C 1165,586.691 1156.67,574.691 1148,563.5C 1142.91,554.675 1136.58,545.008 1129,534.5C 1127.89,533.24 1127.72,532.073 1128.5,531C 1126.7,530.028 1125.03,528.861 1123.5,527.5C 1122.29,528.274 1122.29,529.107 1123.5,530C 1122.47,530.513 1121.47,531.013 1120.5,531.5C 1118.77,525.654 1118.1,519.654 1118.5,513.5 Z"/></g>
<g><path style="opacity:0.953" fill="#003a25" d="M 999.5,486.5 C 999.5,486.833 999.5,487.167 999.5,487.5C 986.167,487.5 972.833,487.5 959.5,487.5C 959.832,527.337 959.499,567.004 958.5,606.5C 958.5,566.5 958.5,526.5 958.5,486.5C 972.167,486.5 985.833,486.5 999.5,486.5 Z"/></g>
<g><path style="opacity:0.855" fill="#00a36b" d="M 595.5,550.5 C 593.878,554.123 591.211,556.789 587.5,558.5C 589.833,555.5 592.5,552.833 595.5,550.5 Z"/></g>
<g><path style="opacity:0.824" fill="#01472f" d="M 536.5,553.5 C 536.277,557.162 535.277,560.495 533.5,563.5C 533.723,559.838 534.723,556.505 536.5,553.5 Z"/></g>
<g><path style="opacity:0.878" fill="#009765" d="M 506.5,558.5 C 506.277,562.162 505.277,565.495 503.5,568.5C 503.723,564.838 504.723,561.505 506.5,558.5 Z"/></g>
<g><path style="opacity:0.91" fill="#00cc81" d="M 801.5,521.5 C 801.667,550.169 801.5,578.835 801,607.5C 800.283,608.044 799.783,608.711 799.5,609.5C 798.5,609.5 797.5,609.5 796.5,609.5C 787.983,609.826 779.65,609.493 771.5,608.5C 771.167,607.833 770.833,607.167 770.5,606.5C 780.24,608.072 789.906,607.739 799.5,605.5C 800.167,577.336 800.833,549.336 801.5,521.5 Z"/></g>
<g><path style="opacity:0.895" fill="#006d44" d="M 1118.5,512.5 C 1117.83,543.833 1117.17,575.167 1116.5,606.5C 1116.5,579.833 1116.5,553.167 1116.5,526.5C 1116.17,521.456 1116.51,516.456 1117.5,511.5C 1118.11,511.624 1118.44,511.957 1118.5,512.5 Z"/></g>
<g><path style="opacity:0.78" fill="#014830" d="M 533.5,563.5 C 533.59,566.152 532.924,568.485 531.5,570.5C 531.41,567.848 532.076,565.515 533.5,563.5 Z"/></g>
<g><path style="opacity:0.902" fill="#009b67" d="M 583.5,562.5 C 580.167,567.833 575.833,572.167 570.5,575.5C 574.5,570.833 578.833,566.5 583.5,562.5 Z"/></g>
<g><path style="opacity:0.922" fill="#009864" d="M 503.5,568.5 C 503.59,571.152 502.924,573.485 501.5,575.5C 501.41,572.848 502.076,570.515 503.5,568.5 Z"/></g>
<g><path style="opacity:0.996" fill="#00e78b" d="M 469.5,574.5 C 472.167,576.833 474.833,579.167 477.5,581.5C 478.671,585.792 480.004,589.959 481.5,594C 481.371,595.981 480.704,597.647 479.5,599C 479.833,599.333 480.167,599.667 480.5,600C 478.329,601.174 477.329,603.007 477.5,605.5C 475.028,605.942 472.528,606.275 470,606.5C 466.821,605.416 463.654,604.416 460.5,603.5C 459.833,602.5 459.167,601.5 458.5,600.5C 457.821,598.332 456.821,596.332 455.5,594.5C 456.551,590.398 455.384,589.731 452,592.5C 451.691,591.234 451.191,590.067 450.5,589C 451.438,587.937 452.438,586.77 453.5,585.5C 452.902,584.205 452.402,582.872 452,581.5C 450.815,583.377 449.815,585.377 449,587.5C 447.989,586.663 446.822,586.33 445.5,586.5C 445.888,584.315 446.888,582.482 448.5,581C 448.241,579.739 447.574,578.739 446.5,578C 446.957,577.586 447.291,577.086 447.5,576.5C 445.36,574.578 444.527,572.244 445,569.5C 445.918,571.632 447.251,572.299 449,571.5C 449.98,573.259 450.647,574.926 451,576.5C 451.333,575.5 451.667,574.5 452,573.5C 452,577.194 453.5,580.027 456.5,582C 458.846,581.208 461.179,581.375 463.5,582.5C 463.919,579.974 464.086,577.641 464,575.5C 465.699,574.594 467.533,574.261 469.5,574.5 Z"/></g>
<g><path style="opacity:0.765" fill="#02402b" d="M 531.5,570.5 C 531.59,573.152 530.924,575.485 529.5,577.5C 529.41,574.848 530.076,572.515 531.5,570.5 Z"/></g>
<g><path style="opacity:0.929" fill="#019f68" d="M 501.5,575.5 C 501.59,578.152 500.924,580.485 499.5,582.5C 499.41,579.848 500.076,577.515 501.5,575.5 Z"/></g>
<g><path style="opacity:0.769" fill="#03402a" d="M 529.5,577.5 C 529.59,580.152 528.924,582.485 527.5,584.5C 527.41,581.848 528.076,579.515 529.5,577.5 Z"/></g>
<g><path style="opacity:0.921" fill="#00aa6e" d="M 570.5,575.5 C 566.728,579.769 563.561,584.436 561,589.5C 560.505,591.473 560.338,593.473 560.5,595.5C 559.426,586.978 562.76,580.311 570.5,575.5 Z"/></g>
<g><path style="opacity:0.949" fill="#00a76f" d="M 499.5,582.5 C 499.59,585.152 498.924,587.485 497.5,589.5C 497.41,586.848 498.076,584.515 499.5,582.5 Z"/></g>
<g><path style="opacity:0.839" fill="#02422c" d="M 527.5,584.5 C 527.277,588.162 526.277,591.495 524.5,594.5C 524.723,590.838 525.723,587.505 527.5,584.5 Z"/></g>
<g><path style="opacity:0.99" fill="#01cc81" d="M 477.5,581.5 C 488.42,590.631 488.087,599.298 476.5,607.5C 470.149,609.681 464.815,608.348 460.5,603.5C 463.654,604.416 466.821,605.416 470,606.5C 472.528,606.275 475.028,605.942 477.5,605.5C 477.329,603.007 478.329,601.174 480.5,600C 480.167,599.667 479.833,599.333 479.5,599C 480.704,597.647 481.371,595.981 481.5,594C 480.004,589.959 478.671,585.792 477.5,581.5 Z"/></g>
<g><path style="opacity:0.957" fill="#00a16a" d="M 497.5,589.5 C 497.277,593.162 496.277,596.495 494.5,599.5C 494.723,595.838 495.723,592.505 497.5,589.5 Z"/></g>
<g><path style="opacity:0.98" fill="#00cc82" d="M 1116.5,526.5 C 1116.5,553.167 1116.5,579.833 1116.5,606.5C 1115.94,607.79 1114.94,608.623 1113.5,609C 1108.83,609.167 1104.17,609.333 1099.5,609.5C 1094.45,609.493 1089.78,608.827 1085.5,607.5C 1095.7,608.029 1105.7,607.362 1115.5,605.5C 1115.17,578.995 1115.5,552.661 1116.5,526.5 Z"/></g>
<g><path style="opacity:0.961" fill="#009d67" d="M 494.5,599.5 C 494.59,602.152 493.924,604.485 492.5,606.5C 492.41,603.848 493.076,601.515 494.5,599.5 Z"/></g>
<g><path style="opacity:0.851" fill="#00482f" d="M 522.5,601.5 C 522.277,605.162 521.277,608.495 519.5,611.5C 519.723,607.838 520.723,604.505 522.5,601.5 Z"/></g>
<g><path style="opacity:0.876" fill="#01a66d" d="M 563.5,601.5 C 568.893,603.879 574.56,604.879 580.5,604.5C 574.004,607.929 568.338,606.929 563.5,601.5 Z"/></g>
<g><path style="opacity:0.957" fill="#009f6a" d="M 492.5,606.5 C 492.59,609.152 491.924,611.485 490.5,613.5C 490.41,610.848 491.076,608.515 492.5,606.5 Z"/></g>
<g><path style="opacity:0.859" fill="#014e33" d="M 519.5,611.5 C 519.554,614.992 518.554,617.992 516.5,620.5C 517.054,617.254 518.054,614.254 519.5,611.5 Z"/></g>
<g><path style="opacity:0.004" fill="#000000" d="M 566.5,616.5 C 570.646,615.353 574.98,615.186 579.5,616C 575.238,617.825 570.905,617.992 566.5,616.5 Z"/></g>
<g><path style="opacity:0.004" fill="#000000" d="M 671.5,618.5 C 680.857,618.168 690.19,618.502 699.5,619.5C 689.83,621.568 680.163,621.734 670.5,620C 671.056,619.617 671.389,619.117 671.5,618.5 Z"/></g>
<g><path style="opacity:0.004" fill="#000000" d="M 772.5,618.5 C 781.525,618.168 790.525,618.502 799.5,619.5C 790.184,620.665 780.851,620.832 771.5,620C 772.056,619.617 772.389,619.117 772.5,618.5 Z"/></g>
<g><path style="opacity:0.004" fill="#000000" d="M 830.5,618.5 C 841.187,618.168 851.854,618.501 862.5,619.5C 851.607,621.547 840.607,621.714 829.5,620C 830.056,619.617 830.389,619.117 830.5,618.5 Z"/></g>
<g><path style="opacity:0.004" fill="#000000" d="M 926.5,618.5 C 936.522,618.168 946.522,618.501 956.5,619.5C 951.521,620.332 946.521,620.998 941.5,621.5C 936.068,621.327 931.068,620.327 926.5,618.5 Z"/></g>
<g><path style="opacity:0.005" fill="#000000" d="M 1022.5,618.5 C 1033.52,618.168 1044.52,618.501 1055.5,619.5C 1046.23,621.573 1036.89,621.906 1027.5,620.5C 1025.36,620.444 1023.69,619.777 1022.5,618.5 Z"/></g>
<g><path style="opacity:0.005" fill="#000000" d="M 1081.5,618.5 C 1093.33,618.023 1104.99,618.523 1116.5,620C 1106.01,621.479 1095.51,621.646 1085,620.5C 1083.32,620.392 1082.15,619.725 1081.5,618.5 Z"/></g>
<g><path style="opacity:0.004" fill="#000000" d="M 1185.5,618.5 C 1194.34,618.031 1203,618.531 1211.5,620C 1207.47,620.303 1203.47,620.803 1199.5,621.5C 1194.41,621.275 1189.74,620.275 1185.5,618.5 Z"/></g>
<g><path style="opacity:0.796" fill="#00724f" d="M 492.5,625.5 C 498.441,626.413 504.441,626.746 510.5,626.5C 505.015,627.652 499.349,627.818 493.5,627C 492.944,626.617 492.611,626.117 492.5,625.5 Z"/></g>
<g><path style="opacity:0.006" fill="#000000" d="M 489.5,634.5 C 498.525,634.168 507.525,634.502 516.5,635.5C 508.435,637.729 500.268,638.062 492,636.5C 490.624,636.316 489.791,635.649 489.5,634.5 Z"/></g>
</svg>
