<?xml version="1.0" encoding="UTF-8"?>
<!DOCTYPE svg PUBLIC "-//W3C//DTD SVG 1.1//EN" "http://www.w3.org/Graphics/SVG/1.1/DTD/svg11.dtd">
<svg xmlns="http://www.w3.org/2000/svg" version="1.1" width="512px" height="512px" style="shape-rendering:geometricPrecision; text-rendering:geometricPrecision; image-rendering:optimizeQuality; fill-rule:evenodd; clip-rule:evenodd" xmlns:xlink="http://www.w3.org/1999/xlink">
<g><path style="opacity:0.995" fill="#ff8434" d="M 287.5,0.5 C 356.167,0.333337 424.834,0.500004 493.5,1C 502.514,4.0152 508.014,10.1819 510,19.5C 510.667,86.5 510.667,153.5 510,220.5C 507.5,231 501,237.5 490.5,240C 423.833,240.667 357.167,240.667 290.5,240C 280.22,238.387 273.72,232.553 271,222.5C 270.333,154.167 270.333,85.8333 271,17.5C 274.019,9.31563 279.519,3.64896 287.5,0.5 Z"/></g>
<g><path style="opacity:0.996" fill="#ff8433" d="M 179.5,39.5 C 197.414,37.2796 209.247,44.613 215,61.5C 215.333,126.833 215.667,192.167 216,257.5C 219.181,277.014 230.348,289.181 249.5,294C 315.167,294.333 380.833,294.667 446.5,295C 466.581,300.752 474.748,313.919 471,334.5C 469.777,338.615 467.777,342.282 465,345.5C 414.833,395.667 364.667,445.833 314.5,496C 296.713,511.036 276.713,514.703 254.5,507C 248.83,504.167 243.497,500.834 238.5,497C 163.667,422.167 88.8333,347.333 14,272.5C -4.80058,246.047 -3.80058,220.38 17,195.5C 67.5275,144.639 118.361,94.139 169.5,44C 172.815,42.1702 176.149,40.6702 179.5,39.5 Z"/></g>
</svg>
